<svg width="1562" height="176" viewBox="0 0 1562 176" fill="none" xmlns="http://www.w3.org/2000/svg">
<line x1="31" y1="90.5" x2="1531" y2="90.5" stroke="white" stroke-width="3"/>
<line x1="32.5" y1="72" x2="32.5" y2="92" stroke="white" stroke-width="3"/>
<line x1="1532.5" y1="72" x2="1532.5" y2="92" stroke="white" stroke-width="3"/>
<line x1="1157.5" y1="72" x2="1157.5" y2="92" stroke="white" stroke-width="3"/>
<line x1="407.5" y1="72" x2="407.5" y2="92" stroke="white" stroke-width="3"/>
<line x1="782.5" y1="72" x2="782.5" y2="92" stroke="white" stroke-width="3"/>
<path d="M37.1 125.3C36.2133 125.3 35.4133 125.093 34.7 124.68C33.9933 124.267 33.4333 123.707 33.02 123C32.6067 122.287 32.4 121.487 32.4 120.6V115C32.4 114.113 32.6067 113.317 33.02 112.61C33.4333 111.897 33.9933 111.333 34.7 110.92C35.4133 110.507 36.2133 110.3 37.1 110.3C37.9867 110.3 38.7833 110.507 39.49 110.92C40.2033 111.333 40.7667 111.897 41.18 112.61C41.5933 113.317 41.8 114.113 41.8 115V120.6C41.8 121.487 41.5933 122.287 41.18 123C40.7667 123.707 40.2033 124.267 39.49 124.68C38.7833 125.093 37.9867 125.3 37.1 125.3ZM37.1 123.88C37.6933 123.88 38.2333 123.737 38.72 123.45C39.2067 123.157 39.5933 122.767 39.88 122.28C40.1667 121.793 40.31 121.257 40.31 120.67V114.93C40.31 114.337 40.1667 113.797 39.88 113.31C39.5933 112.823 39.2067 112.437 38.72 112.15C38.2333 111.857 37.6933 111.71 37.1 111.71C36.5067 111.71 35.9667 111.857 35.48 112.15C34.9933 112.437 34.6067 112.823 34.32 113.31C34.0333 113.797 33.89 114.337 33.89 114.93V120.67C33.89 121.257 34.0333 121.793 34.32 122.28C34.6067 122.767 34.9933 123.157 35.48 123.45C35.9667 123.737 36.5067 123.88 37.1 123.88ZM61.4909 125L61.5009 117.91C61.5009 117.077 61.2676 116.423 60.8009 115.95C60.3409 115.47 59.7543 115.23 59.0409 115.23C58.6343 115.23 58.2376 115.323 57.8509 115.51C57.4643 115.697 57.1443 115.997 56.8909 116.41C56.6443 116.823 56.5209 117.363 56.5209 118.03L55.6509 117.78C55.6309 117.007 55.7809 116.33 56.1009 115.75C56.4276 115.17 56.8743 114.72 57.4409 114.4C58.0143 114.073 58.6609 113.91 59.3809 113.91C60.4676 113.91 61.3376 114.247 61.9909 114.92C62.6443 115.587 62.9709 116.49 62.9709 117.63L62.9609 125H61.4909ZM48.6009 125V114.2H49.9209V116.86H50.0809V125H48.6009ZM55.0609 125L55.0709 118.01C55.0709 117.15 54.8409 116.473 54.3809 115.98C53.9276 115.48 53.3276 115.23 52.5809 115.23C51.8343 115.23 51.2309 115.487 50.7709 116C50.3109 116.507 50.0809 117.183 50.0809 118.03L49.2009 117.55C49.2009 116.857 49.3643 116.237 49.6909 115.69C50.0176 115.137 50.4643 114.703 51.0309 114.39C51.5976 114.07 52.2409 113.91 52.9609 113.91C53.6476 113.91 54.2576 114.057 54.7909 114.35C55.3309 114.643 55.7543 115.07 56.0609 115.63C56.3676 116.19 56.5209 116.87 56.5209 117.67L56.5109 125H55.0609ZM70.0755 125.3C69.0221 125.3 68.1088 125.067 67.3355 124.6C66.5688 124.133 65.9721 123.477 65.5455 122.63C65.1188 121.783 64.9055 120.79 64.9055 119.65C64.9055 118.47 65.1155 117.45 65.5355 116.59C65.9555 115.73 66.5455 115.067 67.3055 114.6C68.0721 114.133 68.9755 113.9 70.0155 113.9C71.0821 113.9 71.9921 114.147 72.7455 114.64C73.4988 115.127 74.0688 115.827 74.4555 116.74C74.8421 117.653 75.0188 118.743 74.9855 120.01H73.4855V119.49C73.4588 118.09 73.1555 117.033 72.5755 116.32C72.0021 115.607 71.1621 115.25 70.0555 115.25C68.8955 115.25 68.0055 115.627 67.3855 116.38C66.7721 117.133 66.4655 118.207 66.4655 119.6C66.4655 120.96 66.7721 122.017 67.3855 122.77C68.0055 123.517 68.8821 123.89 70.0155 123.89C70.7888 123.89 71.4621 123.713 72.0355 123.36C72.6155 123 73.0721 122.483 73.4055 121.81L74.7755 122.34C74.3488 123.28 73.7188 124.01 72.8855 124.53C72.0588 125.043 71.1221 125.3 70.0755 125.3ZM65.9455 120.01V118.78H74.1955V120.01H65.9455ZM83.0847 125C82.478 125.127 81.878 125.177 81.2847 125.15C80.698 125.123 80.1714 124.997 79.7047 124.77C79.2447 124.543 78.8947 124.19 78.6547 123.71C78.4614 123.31 78.3547 122.907 78.3347 122.5C78.3214 122.087 78.3147 121.617 78.3147 121.09V111.2H79.7747V121.03C79.7747 121.483 79.778 121.863 79.7847 122.17C79.798 122.47 79.868 122.737 79.9947 122.97C80.2347 123.417 80.6147 123.683 81.1347 123.77C81.6614 123.857 82.3114 123.837 83.0847 123.71V125ZM76.0047 115.46V114.2H83.0847V115.46H76.0047ZM89.3919 125.3C88.3385 125.3 87.4252 125.067 86.6519 124.6C85.8852 124.133 85.2885 123.477 84.8619 122.63C84.4352 121.783 84.2219 120.79 84.2219 119.65C84.2219 118.47 84.4319 117.45 84.8519 116.59C85.2719 115.73 85.8619 115.067 86.6219 114.6C87.3885 114.133 88.2919 113.9 89.3319 113.9C90.3985 113.9 91.3085 114.147 92.0619 114.64C92.8152 115.127 93.3852 115.827 93.7719 116.74C94.1585 117.653 94.3352 118.743 94.3019 120.01H92.8019V119.49C92.7752 118.09 92.4719 117.033 91.8919 116.32C91.3185 115.607 90.4785 115.25 89.3719 115.25C88.2119 115.25 87.3219 115.627 86.7019 116.38C86.0885 117.133 85.7819 118.207 85.7819 119.6C85.7819 120.96 86.0885 122.017 86.7019 122.77C87.3219 123.517 88.1985 123.89 89.3319 123.89C90.1052 123.89 90.7785 123.713 91.3519 123.36C91.9319 123 92.3885 122.483 92.7219 121.81L94.0919 122.34C93.6652 123.28 93.0352 124.01 92.2019 124.53C91.3752 125.043 90.4385 125.3 89.3919 125.3ZM85.2619 120.01V118.78H93.5119V120.01H85.2619ZM96.5211 125V114.2H97.8411V116.8L97.5811 116.46C97.7011 116.14 97.8578 115.847 98.0511 115.58C98.2444 115.307 98.4544 115.083 98.6811 114.91C98.9611 114.663 99.2878 114.477 99.6611 114.35C100.034 114.217 100.411 114.14 100.791 114.12C101.171 114.093 101.518 114.12 101.831 114.2V115.58C101.438 115.48 101.008 115.457 100.541 115.51C100.074 115.563 99.6444 115.75 99.2511 116.07C98.8911 116.35 98.6211 116.687 98.4411 117.08C98.2611 117.467 98.1411 117.88 98.0811 118.32C98.0211 118.753 97.9911 119.183 97.9911 119.61V125H96.5211ZM107.368 125.29C106.101 125.29 105.058 125.017 104.238 124.47C103.424 123.923 102.924 123.163 102.738 122.19L104.238 121.94C104.398 122.553 104.761 123.043 105.328 123.41C105.901 123.77 106.608 123.95 107.447 123.95C108.268 123.95 108.914 123.78 109.388 123.44C109.861 123.093 110.098 122.623 110.098 122.03C110.098 121.697 110.021 121.427 109.868 121.22C109.721 121.007 109.418 120.81 108.958 120.63C108.498 120.45 107.811 120.237 106.898 119.99C105.918 119.723 105.151 119.457 104.598 119.19C104.044 118.923 103.651 118.617 103.418 118.27C103.184 117.917 103.068 117.487 103.068 116.98C103.068 116.367 103.241 115.83 103.588 115.37C103.934 114.903 104.414 114.543 105.028 114.29C105.641 114.03 106.354 113.9 107.168 113.9C107.981 113.9 108.708 114.033 109.348 114.3C109.994 114.56 110.514 114.927 110.908 115.4C111.301 115.873 111.534 116.423 111.608 117.05L110.108 117.32C110.008 116.687 109.691 116.187 109.158 115.82C108.631 115.447 107.961 115.253 107.148 115.24C106.381 115.22 105.758 115.367 105.278 115.68C104.798 115.987 104.558 116.397 104.558 116.91C104.558 117.197 104.644 117.443 104.818 117.65C104.991 117.85 105.304 118.04 105.758 118.22C106.218 118.4 106.871 118.597 107.718 118.81C108.711 119.063 109.491 119.33 110.058 119.61C110.624 119.89 111.028 120.22 111.268 120.6C111.508 120.98 111.628 121.45 111.628 122.01C111.628 123.03 111.248 123.833 110.488 124.42C109.734 125 108.694 125.29 107.368 125.29Z" fill="white"/>
<path d="M360.74 125V122.21H354V120.81L358.82 110.6H360.47L355.65 120.81H360.74V116.61H362.22V120.81H363.79V122.21H362.22V125H360.74ZM370.897 125.3C370.01 125.3 369.21 125.093 368.497 124.68C367.79 124.267 367.23 123.707 366.817 123C366.404 122.287 366.197 121.487 366.197 120.6V115C366.197 114.113 366.404 113.317 366.817 112.61C367.23 111.897 367.79 111.333 368.497 110.92C369.21 110.507 370.01 110.3 370.897 110.3C371.784 110.3 372.58 110.507 373.287 110.92C374 111.333 374.564 111.897 374.977 112.61C375.39 113.317 375.597 114.113 375.597 115V120.6C375.597 121.487 375.39 122.287 374.977 123C374.564 123.707 374 124.267 373.287 124.68C372.58 125.093 371.784 125.3 370.897 125.3ZM370.897 123.88C371.49 123.88 372.03 123.737 372.517 123.45C373.004 123.157 373.39 122.767 373.677 122.28C373.964 121.793 374.107 121.257 374.107 120.67V114.93C374.107 114.337 373.964 113.797 373.677 113.31C373.39 112.823 373.004 112.437 372.517 112.15C372.03 111.857 371.49 111.71 370.897 111.71C370.304 111.71 369.764 111.857 369.277 112.15C368.79 112.437 368.404 112.823 368.117 113.31C367.83 113.797 367.687 114.337 367.687 114.93V120.67C367.687 121.257 367.83 121.793 368.117 122.28C368.404 122.767 368.79 123.157 369.277 123.45C369.764 123.737 370.304 123.88 370.897 123.88ZM383.104 125.3C382.217 125.3 381.417 125.093 380.704 124.68C379.997 124.267 379.437 123.707 379.024 123C378.611 122.287 378.404 121.487 378.404 120.6V115C378.404 114.113 378.611 113.317 379.024 112.61C379.437 111.897 379.997 111.333 380.704 110.92C381.417 110.507 382.217 110.3 383.104 110.3C383.991 110.3 384.787 110.507 385.494 110.92C386.207 111.333 386.771 111.897 387.184 112.61C387.597 113.317 387.804 114.113 387.804 115V120.6C387.804 121.487 387.597 122.287 387.184 123C386.771 123.707 386.207 124.267 385.494 124.68C384.787 125.093 383.991 125.3 383.104 125.3ZM383.104 123.88C383.697 123.88 384.237 123.737 384.724 123.45C385.211 123.157 385.597 122.767 385.884 122.28C386.171 121.793 386.314 121.257 386.314 120.67V114.93C386.314 114.337 386.171 113.797 385.884 113.31C385.597 112.823 385.211 112.437 384.724 112.15C384.237 111.857 383.697 111.71 383.104 111.71C382.511 111.71 381.971 111.857 381.484 112.15C380.997 112.437 380.611 112.823 380.324 113.31C380.037 113.797 379.894 114.337 379.894 114.93V120.67C379.894 121.257 380.037 121.793 380.324 122.28C380.611 122.767 380.997 123.157 381.484 123.45C381.971 123.737 382.511 123.88 383.104 123.88ZM407.495 125L407.505 117.91C407.505 117.077 407.272 116.423 406.805 115.95C406.345 115.47 405.758 115.23 405.045 115.23C404.638 115.23 404.242 115.323 403.855 115.51C403.468 115.697 403.148 115.997 402.895 116.41C402.648 116.823 402.525 117.363 402.525 118.03L401.655 117.78C401.635 117.007 401.785 116.33 402.105 115.75C402.432 115.17 402.878 114.72 403.445 114.4C404.018 114.073 404.665 113.91 405.385 113.91C406.472 113.91 407.342 114.247 407.995 114.92C408.648 115.587 408.975 116.49 408.975 117.63L408.965 125H407.495ZM394.605 125V114.2H395.925V116.86H396.085V125H394.605ZM401.065 125L401.075 118.01C401.075 117.15 400.845 116.473 400.385 115.98C399.932 115.48 399.332 115.23 398.585 115.23C397.838 115.23 397.235 115.487 396.775 116C396.315 116.507 396.085 117.183 396.085 118.03L395.205 117.55C395.205 116.857 395.368 116.237 395.695 115.69C396.022 115.137 396.468 114.703 397.035 114.39C397.602 114.07 398.245 113.91 398.965 113.91C399.652 113.91 400.262 114.057 400.795 114.35C401.335 114.643 401.758 115.07 402.065 115.63C402.372 116.19 402.525 116.87 402.525 117.67L402.515 125H401.065ZM416.079 125.3C415.026 125.3 414.113 125.067 413.339 124.6C412.573 124.133 411.976 123.477 411.549 122.63C411.123 121.783 410.909 120.79 410.909 119.65C410.909 118.47 411.119 117.45 411.539 116.59C411.959 115.73 412.549 115.067 413.309 114.6C414.076 114.133 414.979 113.9 416.019 113.9C417.086 113.9 417.996 114.147 418.749 114.64C419.503 115.127 420.073 115.827 420.459 116.74C420.846 117.653 421.023 118.743 420.989 120.01H419.489V119.49C419.463 118.09 419.159 117.033 418.579 116.32C418.006 115.607 417.166 115.25 416.059 115.25C414.899 115.25 414.009 115.627 413.389 116.38C412.776 117.133 412.469 118.207 412.469 119.6C412.469 120.96 412.776 122.017 413.389 122.77C414.009 123.517 414.886 123.89 416.019 123.89C416.793 123.89 417.466 123.713 418.039 123.36C418.619 123 419.076 122.483 419.409 121.81L420.779 122.34C420.353 123.28 419.723 124.01 418.889 124.53C418.063 125.043 417.126 125.3 416.079 125.3ZM411.949 120.01V118.78H420.199V120.01H411.949ZM429.089 125C428.482 125.127 427.882 125.177 427.289 125.15C426.702 125.123 426.175 124.997 425.709 124.77C425.249 124.543 424.899 124.19 424.659 123.71C424.465 123.31 424.359 122.907 424.339 122.5C424.325 122.087 424.319 121.617 424.319 121.09V111.2H425.779V121.03C425.779 121.483 425.782 121.863 425.789 122.17C425.802 122.47 425.872 122.737 425.999 122.97C426.239 123.417 426.619 123.683 427.139 123.77C427.665 123.857 428.315 123.837 429.089 123.71V125ZM422.009 115.46V114.2H429.089V115.46H422.009ZM435.396 125.3C434.342 125.3 433.429 125.067 432.656 124.6C431.889 124.133 431.292 123.477 430.866 122.63C430.439 121.783 430.226 120.79 430.226 119.65C430.226 118.47 430.436 117.45 430.856 116.59C431.276 115.73 431.866 115.067 432.626 114.6C433.392 114.133 434.296 113.9 435.336 113.9C436.402 113.9 437.312 114.147 438.066 114.64C438.819 115.127 439.389 115.827 439.776 116.74C440.162 117.653 440.339 118.743 440.306 120.01H438.806V119.49C438.779 118.09 438.476 117.033 437.896 116.32C437.322 115.607 436.482 115.25 435.376 115.25C434.216 115.25 433.326 115.627 432.706 116.38C432.092 117.133 431.786 118.207 431.786 119.6C431.786 120.96 432.092 122.017 432.706 122.77C433.326 123.517 434.202 123.89 435.336 123.89C436.109 123.89 436.782 123.713 437.356 123.36C437.936 123 438.392 122.483 438.726 121.81L440.096 122.34C439.669 123.28 439.039 124.01 438.206 124.53C437.379 125.043 436.442 125.3 435.396 125.3ZM431.266 120.01V118.78H439.516V120.01H431.266ZM442.525 125V114.2H443.845V116.8L443.585 116.46C443.705 116.14 443.862 115.847 444.055 115.58C444.248 115.307 444.458 115.083 444.685 114.91C444.965 114.663 445.292 114.477 445.665 114.35C446.038 114.217 446.415 114.14 446.795 114.12C447.175 114.093 447.522 114.12 447.835 114.2V115.58C447.442 115.48 447.012 115.457 446.545 115.51C446.078 115.563 445.648 115.75 445.255 116.07C444.895 116.35 444.625 116.687 444.445 117.08C444.265 117.467 444.145 117.88 444.085 118.32C444.025 118.753 443.995 119.183 443.995 119.61V125H442.525ZM453.371 125.29C452.105 125.29 451.061 125.017 450.241 124.47C449.428 123.923 448.928 123.163 448.741 122.19L450.241 121.94C450.401 122.553 450.765 123.043 451.331 123.41C451.905 123.77 452.611 123.95 453.451 123.95C454.271 123.95 454.918 123.78 455.391 123.44C455.865 123.093 456.101 122.623 456.101 122.03C456.101 121.697 456.025 121.427 455.871 121.22C455.725 121.007 455.421 120.81 454.961 120.63C454.501 120.45 453.815 120.237 452.901 119.99C451.921 119.723 451.155 119.457 450.601 119.19C450.048 118.923 449.655 118.617 449.421 118.27C449.188 117.917 449.071 117.487 449.071 116.98C449.071 116.367 449.245 115.83 449.591 115.37C449.938 114.903 450.418 114.543 451.031 114.29C451.645 114.03 452.358 113.9 453.171 113.9C453.985 113.9 454.711 114.033 455.351 114.3C455.998 114.56 456.518 114.927 456.911 115.4C457.305 115.873 457.538 116.423 457.611 117.05L456.111 117.32C456.011 116.687 455.695 116.187 455.161 115.82C454.635 115.447 453.965 115.253 453.151 115.24C452.385 115.22 451.761 115.367 451.281 115.68C450.801 115.987 450.561 116.397 450.561 116.91C450.561 117.197 450.648 117.443 450.821 117.65C450.995 117.85 451.308 118.04 451.761 118.22C452.221 118.4 452.875 118.597 453.721 118.81C454.715 119.063 455.495 119.33 456.061 119.61C456.628 119.89 457.031 120.22 457.271 120.6C457.511 120.98 457.631 121.45 457.631 122.01C457.631 123.03 457.251 123.833 456.491 124.42C455.738 125 454.698 125.29 453.371 125.29Z" fill="white"/>
<path d="M731.17 125L736.47 112.03H729.8V110.6H738.04V112.03L732.75 125H731.17ZM745.139 125.3C744.252 125.3 743.452 125.093 742.739 124.68C742.032 124.267 741.472 123.707 741.059 123C740.646 122.287 740.439 121.487 740.439 120.6V115C740.439 114.113 740.646 113.317 741.059 112.61C741.472 111.897 742.032 111.333 742.739 110.92C743.452 110.507 744.252 110.3 745.139 110.3C746.026 110.3 746.822 110.507 747.529 110.92C748.242 111.333 748.806 111.897 749.219 112.61C749.632 113.317 749.839 114.113 749.839 115V120.6C749.839 121.487 749.632 122.287 749.219 123C748.806 123.707 748.242 124.267 747.529 124.68C746.822 125.093 746.026 125.3 745.139 125.3ZM745.139 123.88C745.732 123.88 746.272 123.737 746.759 123.45C747.246 123.157 747.632 122.767 747.919 122.28C748.206 121.793 748.349 121.257 748.349 120.67V114.93C748.349 114.337 748.206 113.797 747.919 113.31C747.632 112.823 747.246 112.437 746.759 112.15C746.272 111.857 745.732 111.71 745.139 111.71C744.546 111.71 744.006 111.857 743.519 112.15C743.032 112.437 742.646 112.823 742.359 113.31C742.072 113.797 741.929 114.337 741.929 114.93V120.67C741.929 121.257 742.072 121.793 742.359 122.28C742.646 122.767 743.032 123.157 743.519 123.45C744.006 123.737 744.546 123.88 745.139 123.88ZM757.346 125.3C756.459 125.3 755.659 125.093 754.946 124.68C754.239 124.267 753.679 123.707 753.266 123C752.853 122.287 752.646 121.487 752.646 120.6V115C752.646 114.113 752.853 113.317 753.266 112.61C753.679 111.897 754.239 111.333 754.946 110.92C755.659 110.507 756.459 110.3 757.346 110.3C758.233 110.3 759.029 110.507 759.736 110.92C760.449 111.333 761.013 111.897 761.426 112.61C761.839 113.317 762.046 114.113 762.046 115V120.6C762.046 121.487 761.839 122.287 761.426 123C761.013 123.707 760.449 124.267 759.736 124.68C759.029 125.093 758.233 125.3 757.346 125.3ZM757.346 123.88C757.939 123.88 758.479 123.737 758.966 123.45C759.453 123.157 759.839 122.767 760.126 122.28C760.413 121.793 760.556 121.257 760.556 120.67V114.93C760.556 114.337 760.413 113.797 760.126 113.31C759.839 112.823 759.453 112.437 758.966 112.15C758.479 111.857 757.939 111.71 757.346 111.71C756.753 111.71 756.213 111.857 755.726 112.15C755.239 112.437 754.853 112.823 754.566 113.31C754.279 113.797 754.136 114.337 754.136 114.93V120.67C754.136 121.257 754.279 121.793 754.566 122.28C754.853 122.767 755.239 123.157 755.726 123.45C756.213 123.737 756.753 123.88 757.346 123.88ZM781.737 125L781.747 117.91C781.747 117.077 781.514 116.423 781.047 115.95C780.587 115.47 780 115.23 779.287 115.23C778.88 115.23 778.484 115.323 778.097 115.51C777.71 115.697 777.39 115.997 777.137 116.41C776.89 116.823 776.767 117.363 776.767 118.03L775.897 117.78C775.877 117.007 776.027 116.33 776.347 115.75C776.674 115.17 777.12 114.72 777.687 114.4C778.26 114.073 778.907 113.91 779.627 113.91C780.714 113.91 781.584 114.247 782.237 114.92C782.89 115.587 783.217 116.49 783.217 117.63L783.207 125H781.737ZM768.847 125V114.2H770.167V116.86H770.327V125H768.847ZM775.307 125L775.317 118.01C775.317 117.15 775.087 116.473 774.627 115.98C774.174 115.48 773.574 115.23 772.827 115.23C772.08 115.23 771.477 115.487 771.017 116C770.557 116.507 770.327 117.183 770.327 118.03L769.447 117.55C769.447 116.857 769.61 116.237 769.937 115.69C770.264 115.137 770.71 114.703 771.277 114.39C771.844 114.07 772.487 113.91 773.207 113.91C773.894 113.91 774.504 114.057 775.037 114.35C775.577 114.643 776 115.07 776.307 115.63C776.614 116.19 776.767 116.87 776.767 117.67L776.757 125H775.307ZM790.322 125.3C789.268 125.3 788.355 125.067 787.582 124.6C786.815 124.133 786.218 123.477 785.792 122.63C785.365 121.783 785.152 120.79 785.152 119.65C785.152 118.47 785.362 117.45 785.782 116.59C786.202 115.73 786.792 115.067 787.552 114.6C788.318 114.133 789.222 113.9 790.262 113.9C791.328 113.9 792.238 114.147 792.992 114.64C793.745 115.127 794.315 115.827 794.702 116.74C795.088 117.653 795.265 118.743 795.232 120.01H793.732V119.49C793.705 118.09 793.402 117.033 792.822 116.32C792.248 115.607 791.408 115.25 790.302 115.25C789.142 115.25 788.252 115.627 787.632 116.38C787.018 117.133 786.712 118.207 786.712 119.6C786.712 120.96 787.018 122.017 787.632 122.77C788.252 123.517 789.128 123.89 790.262 123.89C791.035 123.89 791.708 123.713 792.282 123.36C792.862 123 793.318 122.483 793.652 121.81L795.022 122.34C794.595 123.28 793.965 124.01 793.132 124.53C792.305 125.043 791.368 125.3 790.322 125.3ZM786.192 120.01V118.78H794.442V120.01H786.192ZM803.331 125C802.724 125.127 802.124 125.177 801.531 125.15C800.944 125.123 800.417 124.997 799.951 124.77C799.491 124.543 799.141 124.19 798.901 123.71C798.707 123.31 798.601 122.907 798.581 122.5C798.567 122.087 798.561 121.617 798.561 121.09V111.2H800.021V121.03C800.021 121.483 800.024 121.863 800.031 122.17C800.044 122.47 800.114 122.737 800.241 122.97C800.481 123.417 800.861 123.683 801.381 123.77C801.907 123.857 802.557 123.837 803.331 123.71V125ZM796.251 115.46V114.2H803.331V115.46H796.251ZM809.638 125.3C808.585 125.3 807.671 125.067 806.898 124.6C806.131 124.133 805.535 123.477 805.108 122.63C804.681 121.783 804.468 120.79 804.468 119.65C804.468 118.47 804.678 117.45 805.098 116.59C805.518 115.73 806.108 115.067 806.868 114.6C807.635 114.133 808.538 113.9 809.578 113.9C810.645 113.9 811.555 114.147 812.308 114.64C813.061 115.127 813.631 115.827 814.018 116.74C814.405 117.653 814.581 118.743 814.548 120.01H813.048V119.49C813.021 118.09 812.718 117.033 812.138 116.32C811.565 115.607 810.725 115.25 809.618 115.25C808.458 115.25 807.568 115.627 806.948 116.38C806.335 117.133 806.028 118.207 806.028 119.6C806.028 120.96 806.335 122.017 806.948 122.77C807.568 123.517 808.445 123.89 809.578 123.89C810.351 123.89 811.025 123.713 811.598 123.36C812.178 123 812.635 122.483 812.968 121.81L814.338 122.34C813.911 123.28 813.281 124.01 812.448 124.53C811.621 125.043 810.685 125.3 809.638 125.3ZM805.508 120.01V118.78H813.758V120.01H805.508ZM816.767 125V114.2H818.087V116.8L817.827 116.46C817.947 116.14 818.104 115.847 818.297 115.58C818.491 115.307 818.701 115.083 818.927 114.91C819.207 114.663 819.534 114.477 819.907 114.35C820.281 114.217 820.657 114.14 821.037 114.12C821.417 114.093 821.764 114.12 822.077 114.2V115.58C821.684 115.48 821.254 115.457 820.787 115.51C820.321 115.563 819.891 115.75 819.497 116.07C819.137 116.35 818.867 116.687 818.687 117.08C818.507 117.467 818.387 117.88 818.327 118.32C818.267 118.753 818.237 119.183 818.237 119.61V125H816.767ZM827.614 125.29C826.347 125.29 825.304 125.017 824.484 124.47C823.67 123.923 823.17 123.163 822.984 122.19L824.484 121.94C824.644 122.553 825.007 123.043 825.574 123.41C826.147 123.77 826.854 123.95 827.694 123.95C828.514 123.95 829.16 123.78 829.634 123.44C830.107 123.093 830.344 122.623 830.344 122.03C830.344 121.697 830.267 121.427 830.114 121.22C829.967 121.007 829.664 120.81 829.204 120.63C828.744 120.45 828.057 120.237 827.144 119.99C826.164 119.723 825.397 119.457 824.844 119.19C824.29 118.923 823.897 118.617 823.664 118.27C823.43 117.917 823.314 117.487 823.314 116.98C823.314 116.367 823.487 115.83 823.834 115.37C824.18 114.903 824.66 114.543 825.274 114.29C825.887 114.03 826.6 113.9 827.414 113.9C828.227 113.9 828.954 114.033 829.594 114.3C830.24 114.56 830.76 114.927 831.154 115.4C831.547 115.873 831.78 116.423 831.854 117.05L830.354 117.32C830.254 116.687 829.937 116.187 829.404 115.82C828.877 115.447 828.207 115.253 827.394 115.24C826.627 115.22 826.004 115.367 825.524 115.68C825.044 115.987 824.804 116.397 824.804 116.91C824.804 117.197 824.89 117.443 825.064 117.65C825.237 117.85 825.55 118.04 826.004 118.22C826.464 118.4 827.117 118.597 827.964 118.81C828.957 119.063 829.737 119.33 830.304 119.61C830.87 119.89 831.274 120.22 831.514 120.6C831.754 120.98 831.874 121.45 831.874 122.01C831.874 123.03 831.494 123.833 830.734 124.42C829.98 125 828.94 125.29 827.614 125.29Z" fill="white"/>
<path d="M1102.91 125V112.24L1100.2 113.87V112.22L1102.91 110.6H1104.4V125H1102.91ZM1112.89 125.3C1112.01 125.3 1111.21 125.093 1110.49 124.68C1109.79 124.267 1109.23 123.707 1108.81 123C1108.4 122.287 1108.19 121.487 1108.19 120.6V115C1108.19 114.113 1108.4 113.317 1108.81 112.61C1109.23 111.897 1109.79 111.333 1110.49 110.92C1111.21 110.507 1112.01 110.3 1112.89 110.3C1113.78 110.3 1114.58 110.507 1115.28 110.92C1116 111.333 1116.56 111.897 1116.97 112.61C1117.39 113.317 1117.59 114.113 1117.59 115V120.6C1117.59 121.487 1117.39 122.287 1116.97 123C1116.56 123.707 1116 124.267 1115.28 124.68C1114.58 125.093 1113.78 125.3 1112.89 125.3ZM1112.89 123.88C1113.49 123.88 1114.03 123.737 1114.51 123.45C1115 123.157 1115.39 122.767 1115.67 122.28C1115.96 121.793 1116.1 121.257 1116.1 120.67V114.93C1116.1 114.337 1115.96 113.797 1115.67 113.31C1115.39 112.823 1115 112.437 1114.51 112.15C1114.03 111.857 1113.49 111.71 1112.89 111.71C1112.3 111.71 1111.76 111.857 1111.27 112.15C1110.79 112.437 1110.4 112.823 1110.11 113.31C1109.83 113.797 1109.68 114.337 1109.68 114.93V120.67C1109.68 121.257 1109.83 121.793 1110.11 122.28C1110.4 122.767 1110.79 123.157 1111.27 123.45C1111.76 123.737 1112.3 123.88 1112.89 123.88ZM1125.1 125.3C1124.21 125.3 1123.41 125.093 1122.7 124.68C1121.99 124.267 1121.43 123.707 1121.02 123C1120.61 122.287 1120.4 121.487 1120.4 120.6V115C1120.4 114.113 1120.61 113.317 1121.02 112.61C1121.43 111.897 1121.99 111.333 1122.7 110.92C1123.41 110.507 1124.21 110.3 1125.1 110.3C1125.99 110.3 1126.78 110.507 1127.49 110.92C1128.2 111.333 1128.77 111.897 1129.18 112.61C1129.59 113.317 1129.8 114.113 1129.8 115V120.6C1129.8 121.487 1129.59 122.287 1129.18 123C1128.77 123.707 1128.2 124.267 1127.49 124.68C1126.78 125.093 1125.99 125.3 1125.1 125.3ZM1125.1 123.88C1125.69 123.88 1126.23 123.737 1126.72 123.45C1127.21 123.157 1127.59 122.767 1127.88 122.28C1128.17 121.793 1128.31 121.257 1128.31 120.67V114.93C1128.31 114.337 1128.17 113.797 1127.88 113.31C1127.59 112.823 1127.21 112.437 1126.72 112.15C1126.23 111.857 1125.69 111.71 1125.1 111.71C1124.51 111.71 1123.97 111.857 1123.48 112.15C1122.99 112.437 1122.61 112.823 1122.32 113.31C1122.03 113.797 1121.89 114.337 1121.89 114.93V120.67C1121.89 121.257 1122.03 121.793 1122.32 122.28C1122.61 122.767 1122.99 123.157 1123.48 123.45C1123.97 123.737 1124.51 123.88 1125.1 123.88ZM1137.31 125.3C1136.42 125.3 1135.62 125.093 1134.91 124.68C1134.2 124.267 1133.64 123.707 1133.23 123C1132.81 122.287 1132.61 121.487 1132.61 120.6V115C1132.61 114.113 1132.81 113.317 1133.23 112.61C1133.64 111.897 1134.2 111.333 1134.91 110.92C1135.62 110.507 1136.42 110.3 1137.31 110.3C1138.19 110.3 1138.99 110.507 1139.7 110.92C1140.41 111.333 1140.97 111.897 1141.39 112.61C1141.8 113.317 1142.01 114.113 1142.01 115V120.6C1142.01 121.487 1141.8 122.287 1141.39 123C1140.97 123.707 1140.41 124.267 1139.7 124.68C1138.99 125.093 1138.19 125.3 1137.31 125.3ZM1137.31 123.88C1137.9 123.88 1138.44 123.737 1138.93 123.45C1139.41 123.157 1139.8 122.767 1140.09 122.28C1140.37 121.793 1140.52 121.257 1140.52 120.67V114.93C1140.52 114.337 1140.37 113.797 1140.09 113.31C1139.8 112.823 1139.41 112.437 1138.93 112.15C1138.44 111.857 1137.9 111.71 1137.31 111.71C1136.71 111.71 1136.17 111.857 1135.69 112.15C1135.2 112.437 1134.81 112.823 1134.53 113.31C1134.24 113.797 1134.1 114.337 1134.1 114.93V120.67C1134.1 121.257 1134.24 121.793 1134.53 122.28C1134.81 122.767 1135.2 123.157 1135.69 123.45C1136.17 123.737 1136.71 123.88 1137.31 123.88ZM1161.7 125L1161.71 117.91C1161.71 117.077 1161.47 116.423 1161.01 115.95C1160.55 115.47 1159.96 115.23 1159.25 115.23C1158.84 115.23 1158.44 115.323 1158.06 115.51C1157.67 115.697 1157.35 115.997 1157.1 116.41C1156.85 116.823 1156.73 117.363 1156.73 118.03L1155.86 117.78C1155.84 117.007 1155.99 116.33 1156.31 115.75C1156.63 115.17 1157.08 114.72 1157.65 114.4C1158.22 114.073 1158.87 113.91 1159.59 113.91C1160.67 113.91 1161.54 114.247 1162.2 114.92C1162.85 115.587 1163.18 116.49 1163.18 117.63L1163.17 125H1161.7ZM1148.81 125V114.2H1150.13V116.86H1150.29V125H1148.81ZM1155.27 125L1155.28 118.01C1155.28 117.15 1155.05 116.473 1154.59 115.98C1154.13 115.48 1153.53 115.23 1152.79 115.23C1152.04 115.23 1151.44 115.487 1150.98 116C1150.52 116.507 1150.29 117.183 1150.29 118.03L1149.41 117.55C1149.41 116.857 1149.57 116.237 1149.9 115.69C1150.22 115.137 1150.67 114.703 1151.24 114.39C1151.8 114.07 1152.45 113.91 1153.17 113.91C1153.85 113.91 1154.46 114.057 1155 114.35C1155.54 114.643 1155.96 115.07 1156.27 115.63C1156.57 116.19 1156.73 116.87 1156.73 117.67L1156.72 125H1155.27ZM1170.28 125.3C1169.23 125.3 1168.32 125.067 1167.54 124.6C1166.78 124.133 1166.18 123.477 1165.75 122.63C1165.33 121.783 1165.11 120.79 1165.11 119.65C1165.11 118.47 1165.32 117.45 1165.74 116.59C1166.16 115.73 1166.75 115.067 1167.51 114.6C1168.28 114.133 1169.18 113.9 1170.22 113.9C1171.29 113.9 1172.2 114.147 1172.95 114.64C1173.71 115.127 1174.28 115.827 1174.66 116.74C1175.05 117.653 1175.23 118.743 1175.19 120.01H1173.69V119.49C1173.67 118.09 1173.36 117.033 1172.78 116.32C1172.21 115.607 1171.37 115.25 1170.26 115.25C1169.1 115.25 1168.21 115.627 1167.59 116.38C1166.98 117.133 1166.67 118.207 1166.67 119.6C1166.67 120.96 1166.98 122.017 1167.59 122.77C1168.21 123.517 1169.09 123.89 1170.22 123.89C1171 123.89 1171.67 123.713 1172.24 123.36C1172.82 123 1173.28 122.483 1173.61 121.81L1174.98 122.34C1174.56 123.28 1173.93 124.01 1173.09 124.53C1172.27 125.043 1171.33 125.3 1170.28 125.3ZM1166.15 120.01V118.78H1174.4V120.01H1166.15ZM1183.29 125C1182.69 125.127 1182.09 125.177 1181.49 125.15C1180.91 125.123 1180.38 124.997 1179.91 124.77C1179.45 124.543 1179.1 124.19 1178.86 123.71C1178.67 123.31 1178.56 122.907 1178.54 122.5C1178.53 122.087 1178.52 121.617 1178.52 121.09V111.2H1179.98V121.03C1179.98 121.483 1179.99 121.863 1179.99 122.17C1180.01 122.47 1180.08 122.737 1180.2 122.97C1180.44 123.417 1180.82 123.683 1181.34 123.77C1181.87 123.857 1182.52 123.837 1183.29 123.71V125ZM1176.21 115.46V114.2H1183.29V115.46H1176.21ZM1189.6 125.3C1188.55 125.3 1187.63 125.067 1186.86 124.6C1186.09 124.133 1185.5 123.477 1185.07 122.63C1184.64 121.783 1184.43 120.79 1184.43 119.65C1184.43 118.47 1184.64 117.45 1185.06 116.59C1185.48 115.73 1186.07 115.067 1186.83 114.6C1187.6 114.133 1188.5 113.9 1189.54 113.9C1190.61 113.9 1191.52 114.147 1192.27 114.64C1193.02 115.127 1193.59 115.827 1193.98 116.74C1194.37 117.653 1194.54 118.743 1194.51 120.01H1193.01V119.49C1192.98 118.09 1192.68 117.033 1192.1 116.32C1191.53 115.607 1190.69 115.25 1189.58 115.25C1188.42 115.25 1187.53 115.627 1186.91 116.38C1186.3 117.133 1185.99 118.207 1185.99 119.6C1185.99 120.96 1186.3 122.017 1186.91 122.77C1187.53 123.517 1188.41 123.89 1189.54 123.89C1190.31 123.89 1190.99 123.713 1191.56 123.36C1192.14 123 1192.6 122.483 1192.93 121.81L1194.3 122.34C1193.87 123.28 1193.24 124.01 1192.41 124.53C1191.58 125.043 1190.65 125.3 1189.6 125.3ZM1185.47 120.01V118.78H1193.72V120.01H1185.47ZM1196.73 125V114.2H1198.05V116.8L1197.79 116.46C1197.91 116.14 1198.06 115.847 1198.26 115.58C1198.45 115.307 1198.66 115.083 1198.89 114.91C1199.17 114.663 1199.49 114.477 1199.87 114.35C1200.24 114.217 1200.62 114.14 1201 114.12C1201.38 114.093 1201.72 114.12 1202.04 114.2V115.58C1201.64 115.48 1201.21 115.457 1200.75 115.51C1200.28 115.563 1199.85 115.75 1199.46 116.07C1199.1 116.35 1198.83 116.687 1198.65 117.08C1198.47 117.467 1198.35 117.88 1198.29 118.32C1198.23 118.753 1198.2 119.183 1198.2 119.61V125H1196.73ZM1207.57 125.29C1206.31 125.29 1205.26 125.017 1204.44 124.47C1203.63 123.923 1203.13 123.163 1202.94 122.19L1204.44 121.94C1204.6 122.553 1204.97 123.043 1205.53 123.41C1206.11 123.77 1206.81 123.95 1207.65 123.95C1208.47 123.95 1209.12 123.78 1209.59 123.44C1210.07 123.093 1210.3 122.623 1210.3 122.03C1210.3 121.697 1210.23 121.427 1210.07 121.22C1209.93 121.007 1209.62 120.81 1209.16 120.63C1208.7 120.45 1208.02 120.237 1207.1 119.99C1206.12 119.723 1205.36 119.457 1204.8 119.19C1204.25 118.923 1203.86 118.617 1203.62 118.27C1203.39 117.917 1203.27 117.487 1203.27 116.98C1203.27 116.367 1203.45 115.83 1203.79 115.37C1204.14 114.903 1204.62 114.543 1205.23 114.29C1205.85 114.03 1206.56 113.9 1207.37 113.9C1208.19 113.9 1208.91 114.033 1209.55 114.3C1210.2 114.56 1210.72 114.927 1211.11 115.4C1211.51 115.873 1211.74 116.423 1211.81 117.05L1210.31 117.32C1210.21 116.687 1209.9 116.187 1209.36 115.82C1208.84 115.447 1208.17 115.253 1207.35 115.24C1206.59 115.22 1205.96 115.367 1205.48 115.68C1205 115.987 1204.76 116.397 1204.76 116.91C1204.76 117.197 1204.85 117.443 1205.02 117.65C1205.2 117.85 1205.51 118.04 1205.96 118.22C1206.42 118.4 1207.08 118.597 1207.92 118.81C1208.92 119.063 1209.7 119.33 1210.26 119.61C1210.83 119.89 1211.23 120.22 1211.47 120.6C1211.71 120.98 1211.83 121.45 1211.83 122.01C1211.83 123.03 1211.45 123.833 1210.69 124.42C1209.94 125 1208.9 125.29 1207.57 125.29Z" fill="white"/>
<path d="M1415 124.99L1415.01 123.65L1421.52 117.77C1422.08 117.263 1422.45 116.783 1422.63 116.33C1422.82 115.87 1422.91 115.39 1422.91 114.89C1422.91 114.297 1422.77 113.76 1422.49 113.28C1422.21 112.8 1421.83 112.42 1421.36 112.14C1420.89 111.853 1420.36 111.71 1419.77 111.71C1419.16 111.71 1418.61 111.857 1418.13 112.15C1417.65 112.443 1417.27 112.83 1416.99 113.31C1416.72 113.79 1416.58 114.313 1416.59 114.88H1415.09C1415.09 114.007 1415.3 113.223 1415.71 112.53C1416.12 111.837 1416.68 111.293 1417.39 110.9C1418.1 110.5 1418.9 110.3 1419.79 110.3C1420.66 110.3 1421.45 110.507 1422.14 110.92C1422.84 111.327 1423.39 111.88 1423.79 112.58C1424.2 113.273 1424.4 114.047 1424.4 114.9C1424.4 115.5 1424.33 116.03 1424.18 116.49C1424.04 116.943 1423.82 117.367 1423.51 117.76C1423.21 118.147 1422.83 118.547 1422.36 118.96L1416.58 124.18L1416.35 123.58H1424.4V124.99H1415ZM1431.51 125.3C1430.62 125.3 1429.82 125.093 1429.11 124.68C1428.4 124.267 1427.84 123.707 1427.43 123C1427.01 122.287 1426.81 121.487 1426.81 120.6V115C1426.81 114.113 1427.01 113.317 1427.43 112.61C1427.84 111.897 1428.4 111.333 1429.11 110.92C1429.82 110.507 1430.62 110.3 1431.51 110.3C1432.39 110.3 1433.19 110.507 1433.9 110.92C1434.61 111.333 1435.17 111.897 1435.59 112.61C1436 113.317 1436.21 114.113 1436.21 115V120.6C1436.21 121.487 1436 122.287 1435.59 123C1435.17 123.707 1434.61 124.267 1433.9 124.68C1433.19 125.093 1432.39 125.3 1431.51 125.3ZM1431.51 123.88C1432.1 123.88 1432.64 123.737 1433.13 123.45C1433.61 123.157 1434 122.767 1434.29 122.28C1434.57 121.793 1434.72 121.257 1434.72 120.67V114.93C1434.72 114.337 1434.57 113.797 1434.29 113.31C1434 112.823 1433.61 112.437 1433.13 112.15C1432.64 111.857 1432.1 111.71 1431.51 111.71C1430.91 111.71 1430.37 111.857 1429.89 112.15C1429.4 112.437 1429.01 112.823 1428.73 113.31C1428.44 113.797 1428.3 114.337 1428.3 114.93V120.67C1428.3 121.257 1428.44 121.793 1428.73 122.28C1429.01 122.767 1429.4 123.157 1429.89 123.45C1430.37 123.737 1430.91 123.88 1431.51 123.88ZM1443.71 125.3C1442.83 125.3 1442.03 125.093 1441.31 124.68C1440.61 124.267 1440.05 123.707 1439.63 123C1439.22 122.287 1439.01 121.487 1439.01 120.6V115C1439.01 114.113 1439.22 113.317 1439.63 112.61C1440.05 111.897 1440.61 111.333 1441.31 110.92C1442.03 110.507 1442.83 110.3 1443.71 110.3C1444.6 110.3 1445.4 110.507 1446.1 110.92C1446.82 111.333 1447.38 111.897 1447.79 112.61C1448.21 113.317 1448.41 114.113 1448.41 115V120.6C1448.41 121.487 1448.21 122.287 1447.79 123C1447.38 123.707 1446.82 124.267 1446.1 124.68C1445.4 125.093 1444.6 125.3 1443.71 125.3ZM1443.71 123.88C1444.31 123.88 1444.85 123.737 1445.33 123.45C1445.82 123.157 1446.21 122.767 1446.49 122.28C1446.78 121.793 1446.92 121.257 1446.92 120.67V114.93C1446.92 114.337 1446.78 113.797 1446.49 113.31C1446.21 112.823 1445.82 112.437 1445.33 112.15C1444.85 111.857 1444.31 111.71 1443.71 111.71C1443.12 111.71 1442.58 111.857 1442.09 112.15C1441.61 112.437 1441.22 112.823 1440.93 113.31C1440.65 113.797 1440.5 114.337 1440.5 114.93V120.67C1440.5 121.257 1440.65 121.793 1440.93 122.28C1441.22 122.767 1441.61 123.157 1442.09 123.45C1442.58 123.737 1443.12 123.88 1443.71 123.88ZM1455.92 125.3C1455.03 125.3 1454.23 125.093 1453.52 124.68C1452.81 124.267 1452.25 123.707 1451.84 123C1451.43 122.287 1451.22 121.487 1451.22 120.6V115C1451.22 114.113 1451.43 113.317 1451.84 112.61C1452.25 111.897 1452.81 111.333 1453.52 110.92C1454.23 110.507 1455.03 110.3 1455.92 110.3C1456.81 110.3 1457.6 110.507 1458.31 110.92C1459.02 111.333 1459.59 111.897 1460 112.61C1460.41 113.317 1460.62 114.113 1460.62 115V120.6C1460.62 121.487 1460.41 122.287 1460 123C1459.59 123.707 1459.02 124.267 1458.31 124.68C1457.6 125.093 1456.81 125.3 1455.92 125.3ZM1455.92 123.88C1456.51 123.88 1457.05 123.737 1457.54 123.45C1458.03 123.157 1458.41 122.767 1458.7 122.28C1458.99 121.793 1459.13 121.257 1459.13 120.67V114.93C1459.13 114.337 1458.99 113.797 1458.7 113.31C1458.41 112.823 1458.03 112.437 1457.54 112.15C1457.05 111.857 1456.51 111.71 1455.92 111.71C1455.33 111.71 1454.79 111.857 1454.3 112.15C1453.81 112.437 1453.43 112.823 1453.14 113.31C1452.85 113.797 1452.71 114.337 1452.71 114.93V120.67C1452.71 121.257 1452.85 121.793 1453.14 122.28C1453.43 122.767 1453.81 123.157 1454.3 123.45C1454.79 123.737 1455.33 123.88 1455.92 123.88ZM1480.31 125L1480.32 117.91C1480.32 117.077 1480.09 116.423 1479.62 115.95C1479.16 115.47 1478.57 115.23 1477.86 115.23C1477.45 115.23 1477.06 115.323 1476.67 115.51C1476.28 115.697 1475.96 115.997 1475.71 116.41C1475.46 116.823 1475.34 117.363 1475.34 118.03L1474.47 117.78C1474.45 117.007 1474.6 116.33 1474.92 115.75C1475.25 115.17 1475.69 114.72 1476.26 114.4C1476.83 114.073 1477.48 113.91 1478.2 113.91C1479.29 113.91 1480.16 114.247 1480.81 114.92C1481.46 115.587 1481.79 116.49 1481.79 117.63L1481.78 125H1480.31ZM1467.42 125V114.2H1468.74V116.86H1468.9V125H1467.42ZM1473.88 125L1473.89 118.01C1473.89 117.15 1473.66 116.473 1473.2 115.98C1472.75 115.48 1472.15 115.23 1471.4 115.23C1470.65 115.23 1470.05 115.487 1469.59 116C1469.13 116.507 1468.9 117.183 1468.9 118.03L1468.02 117.55C1468.02 116.857 1468.18 116.237 1468.51 115.69C1468.84 115.137 1469.28 114.703 1469.85 114.39C1470.42 114.07 1471.06 113.91 1471.78 113.91C1472.47 113.91 1473.08 114.057 1473.61 114.35C1474.15 114.643 1474.57 115.07 1474.88 115.63C1475.19 116.19 1475.34 116.87 1475.34 117.67L1475.33 125H1473.88ZM1488.9 125.3C1487.84 125.3 1486.93 125.067 1486.16 124.6C1485.39 124.133 1484.79 123.477 1484.37 122.63C1483.94 121.783 1483.73 120.79 1483.73 119.65C1483.73 118.47 1483.94 117.45 1484.36 116.59C1484.78 115.73 1485.37 115.067 1486.13 114.6C1486.89 114.133 1487.8 113.9 1488.84 113.9C1489.9 113.9 1490.81 114.147 1491.57 114.64C1492.32 115.127 1492.89 115.827 1493.28 116.74C1493.66 117.653 1493.84 118.743 1493.81 120.01H1492.31V119.49C1492.28 118.09 1491.98 117.033 1491.4 116.32C1490.82 115.607 1489.98 115.25 1488.88 115.25C1487.72 115.25 1486.83 115.627 1486.21 116.38C1485.59 117.133 1485.29 118.207 1485.29 119.6C1485.29 120.96 1485.59 122.017 1486.21 122.77C1486.83 123.517 1487.7 123.89 1488.84 123.89C1489.61 123.89 1490.28 123.713 1490.86 123.36C1491.44 123 1491.89 122.483 1492.23 121.81L1493.6 122.34C1493.17 123.28 1492.54 124.01 1491.71 124.53C1490.88 125.043 1489.94 125.3 1488.9 125.3ZM1484.77 120.01V118.78H1493.02V120.01H1484.77ZM1501.91 125C1501.3 125.127 1500.7 125.177 1500.11 125.15C1499.52 125.123 1498.99 124.997 1498.53 124.77C1498.07 124.543 1497.72 124.19 1497.48 123.71C1497.28 123.31 1497.18 122.907 1497.16 122.5C1497.14 122.087 1497.14 121.617 1497.14 121.09V111.2H1498.6V121.03C1498.6 121.483 1498.6 121.863 1498.61 122.17C1498.62 122.47 1498.69 122.737 1498.82 122.97C1499.06 123.417 1499.44 123.683 1499.96 123.77C1500.48 123.857 1501.13 123.837 1501.91 123.71V125ZM1494.83 115.46V114.2H1501.91V115.46H1494.83ZM1508.21 125.3C1507.16 125.3 1506.25 125.067 1505.47 124.6C1504.71 124.133 1504.11 123.477 1503.68 122.63C1503.26 121.783 1503.04 120.79 1503.04 119.65C1503.04 118.47 1503.25 117.45 1503.67 116.59C1504.09 115.73 1504.68 115.067 1505.44 114.6C1506.21 114.133 1507.11 113.9 1508.15 113.9C1509.22 113.9 1510.13 114.147 1510.88 114.64C1511.64 115.127 1512.21 115.827 1512.59 116.74C1512.98 117.653 1513.16 118.743 1513.12 120.01H1511.62V119.49C1511.6 118.09 1511.29 117.033 1510.71 116.32C1510.14 115.607 1509.3 115.25 1508.19 115.25C1507.03 115.25 1506.14 115.627 1505.52 116.38C1504.91 117.133 1504.6 118.207 1504.6 119.6C1504.6 120.96 1504.91 122.017 1505.52 122.77C1506.14 123.517 1507.02 123.89 1508.15 123.89C1508.93 123.89 1509.6 123.713 1510.17 123.36C1510.75 123 1511.21 122.483 1511.54 121.81L1512.91 122.34C1512.49 123.28 1511.86 124.01 1511.02 124.53C1510.2 125.043 1509.26 125.3 1508.21 125.3ZM1504.08 120.01V118.78H1512.33V120.01H1504.08ZM1515.34 125V114.2H1516.66V116.8L1516.4 116.46C1516.52 116.14 1516.68 115.847 1516.87 115.58C1517.06 115.307 1517.27 115.083 1517.5 114.91C1517.78 114.663 1518.11 114.477 1518.48 114.35C1518.85 114.217 1519.23 114.14 1519.61 114.12C1519.99 114.093 1520.34 114.12 1520.65 114.2V115.58C1520.26 115.48 1519.83 115.457 1519.36 115.51C1518.89 115.563 1518.46 115.75 1518.07 116.07C1517.71 116.35 1517.44 116.687 1517.26 117.08C1517.08 117.467 1516.96 117.88 1516.9 118.32C1516.84 118.753 1516.81 119.183 1516.81 119.61V125H1515.34ZM1526.19 125.29C1524.92 125.29 1523.88 125.017 1523.06 124.47C1522.24 123.923 1521.74 123.163 1521.56 122.19L1523.06 121.94C1523.22 122.553 1523.58 123.043 1524.15 123.41C1524.72 123.77 1525.43 123.95 1526.27 123.95C1527.09 123.95 1527.73 123.78 1528.21 123.44C1528.68 123.093 1528.92 122.623 1528.92 122.03C1528.92 121.697 1528.84 121.427 1528.69 121.22C1528.54 121.007 1528.24 120.81 1527.78 120.63C1527.32 120.45 1526.63 120.237 1525.72 119.99C1524.74 119.723 1523.97 119.457 1523.42 119.19C1522.86 118.923 1522.47 118.617 1522.24 118.27C1522 117.917 1521.89 117.487 1521.89 116.98C1521.89 116.367 1522.06 115.83 1522.41 115.37C1522.75 114.903 1523.23 114.543 1523.85 114.29C1524.46 114.03 1525.17 113.9 1525.99 113.9C1526.8 113.9 1527.53 114.033 1528.17 114.3C1528.81 114.56 1529.33 114.927 1529.73 115.4C1530.12 115.873 1530.35 116.423 1530.43 117.05L1528.93 117.32C1528.83 116.687 1528.51 116.187 1527.98 115.82C1527.45 115.447 1526.78 115.253 1525.97 115.24C1525.2 115.22 1524.58 115.367 1524.1 115.68C1523.62 115.987 1523.38 116.397 1523.38 116.91C1523.38 117.197 1523.46 117.443 1523.64 117.65C1523.81 117.85 1524.12 118.04 1524.58 118.22C1525.04 118.4 1525.69 118.597 1526.54 118.81C1527.53 119.063 1528.31 119.33 1528.88 119.61C1529.44 119.89 1529.85 120.22 1530.09 120.6C1530.33 120.98 1530.45 121.45 1530.45 122.01C1530.45 123.03 1530.07 123.833 1529.31 124.42C1528.55 125 1527.51 125.29 1526.19 125.29Z" fill="white"/>
</svg>
