<svg width="1504" height="69" viewBox="0 0 1504 69" fill="none" xmlns="http://www.w3.org/2000/svg">
<line y1="18.5" x2="1500" y2="18.5" stroke="white" stroke-width="3"/>
<line x1="1.5" x2="1.5" y2="20" stroke="white" stroke-width="3"/>
<line x1="1501.5" x2="1501.5" y2="20" stroke="white" stroke-width="3"/>
<line x1="1126.5" x2="1126.5" y2="20" stroke="white" stroke-width="3"/>
<line x1="376.5" x2="376.5" y2="20" stroke="white" stroke-width="3"/>
<line x1="189.5" y1="10" x2="189.5" y2="20" stroke="white" stroke-width="3"/>
<line x1="95.5" y1="10" x2="95.5" y2="20" stroke="white" stroke-width="3"/>
<line x1="283.5" y1="10" x2="283.5" y2="20" stroke="white" stroke-width="3"/>
<line x1="563.5" y1="10" x2="563.5" y2="20" stroke="white" stroke-width="3"/>
<line x1="657.5" y1="10" x2="657.5" y2="20" stroke="white" stroke-width="3"/>
<line x1="469.5" y1="10" x2="469.5" y2="20" stroke="white" stroke-width="3"/>
<line x1="938.5" y1="10" x2="938.5" y2="20" stroke="white" stroke-width="3"/>
<line x1="844.5" y1="10" x2="844.5" y2="20" stroke="white" stroke-width="3"/>
<line x1="1032.5" y1="10" x2="1032.5" y2="20" stroke="white" stroke-width="3"/>
<line x1="1314.5" y1="10" x2="1314.5" y2="20" stroke="white" stroke-width="3"/>
<line x1="1220.5" y1="10" x2="1220.5" y2="20" stroke="white" stroke-width="3"/>
<line x1="1407.5" y1="10" x2="1407.5" y2="20" stroke="white" stroke-width="3"/>
<line x1="751.5" x2="751.5" y2="20" stroke="white" stroke-width="3"/>
<path d="M6.1 53.3C5.21333 53.3 4.41333 53.0933 3.7 52.68C2.99333 52.2667 2.43333 51.7067 2.02 51C1.60667 50.2867 1.4 49.4867 1.4 48.6V43C1.4 42.1133 1.60667 41.3167 2.02 40.61C2.43333 39.8967 2.99333 39.3333 3.7 38.92C4.41333 38.5067 5.21333 38.3 6.1 38.3C6.98667 38.3 7.78333 38.5067 8.49 38.92C9.20333 39.3333 9.76667 39.8967 10.18 40.61C10.5933 41.3167 10.8 42.1133 10.8 43V48.6C10.8 49.4867 10.5933 50.2867 10.18 51C9.76667 51.7067 9.20333 52.2667 8.49 52.68C7.78333 53.0933 6.98667 53.3 6.1 53.3ZM6.1 51.88C6.69333 51.88 7.23333 51.7367 7.72 51.45C8.20667 51.1567 8.59333 50.7667 8.88 50.28C9.16667 49.7933 9.31 49.2567 9.31 48.67V42.93C9.31 42.3367 9.16667 41.7967 8.88 41.31C8.59333 40.8233 8.20667 40.4367 7.72 40.15C7.23333 39.8567 6.69333 39.71 6.1 39.71C5.50667 39.71 4.96667 39.8567 4.48 40.15C3.99333 40.4367 3.60667 40.8233 3.32 41.31C3.03333 41.7967 2.89 42.3367 2.89 42.93V48.67C2.89 49.2567 3.03333 49.7933 3.32 50.28C3.60667 50.7667 3.99333 51.1567 4.48 51.45C4.96667 51.7367 5.50667 51.88 6.1 51.88ZM30.4909 53L30.5009 45.91C30.5009 45.0767 30.2676 44.4233 29.8009 43.95C29.3409 43.47 28.7543 43.23 28.0409 43.23C27.6343 43.23 27.2376 43.3233 26.8509 43.51C26.4643 43.6967 26.1443 43.9967 25.8909 44.41C25.6443 44.8233 25.5209 45.3633 25.5209 46.03L24.6509 45.78C24.6309 45.0067 24.7809 44.33 25.1009 43.75C25.4276 43.17 25.8743 42.72 26.4409 42.4C27.0143 42.0733 27.6609 41.91 28.3809 41.91C29.4676 41.91 30.3376 42.2467 30.9909 42.92C31.6443 43.5867 31.9709 44.49 31.9709 45.63L31.9609 53H30.4909ZM17.6009 53V42.2H18.9209V44.86H19.0809V53H17.6009ZM24.0609 53L24.0709 46.01C24.0709 45.15 23.8409 44.4733 23.3809 43.98C22.9276 43.48 22.3276 43.23 21.5809 43.23C20.8343 43.23 20.2309 43.4867 19.7709 44C19.3109 44.5067 19.0809 45.1833 19.0809 46.03L18.2009 45.55C18.2009 44.8567 18.3643 44.2367 18.6909 43.69C19.0176 43.1367 19.4643 42.7033 20.0309 42.39C20.5976 42.07 21.2409 41.91 21.9609 41.91C22.6476 41.91 23.2576 42.0567 23.7909 42.35C24.3309 42.6433 24.7543 43.07 25.0609 43.63C25.3676 44.19 25.5209 44.87 25.5209 45.67L25.5109 53H24.0609ZM39.0755 53.3C38.0221 53.3 37.1088 53.0667 36.3355 52.6C35.5688 52.1333 34.9721 51.4767 34.5455 50.63C34.1188 49.7833 33.9055 48.79 33.9055 47.65C33.9055 46.47 34.1155 45.45 34.5355 44.59C34.9555 43.73 35.5455 43.0667 36.3055 42.6C37.0721 42.1333 37.9755 41.9 39.0155 41.9C40.0821 41.9 40.9921 42.1467 41.7455 42.64C42.4988 43.1267 43.0688 43.8267 43.4555 44.74C43.8421 45.6533 44.0188 46.7433 43.9855 48.01H42.4855V47.49C42.4588 46.09 42.1555 45.0333 41.5755 44.32C41.0021 43.6067 40.1621 43.25 39.0555 43.25C37.8955 43.25 37.0055 43.6267 36.3855 44.38C35.7721 45.1333 35.4655 46.2067 35.4655 47.6C35.4655 48.96 35.7721 50.0167 36.3855 50.77C37.0055 51.5167 37.8821 51.89 39.0155 51.89C39.7888 51.89 40.4621 51.7133 41.0355 51.36C41.6155 51 42.0721 50.4833 42.4055 49.81L43.7755 50.34C43.3488 51.28 42.7188 52.01 41.8855 52.53C41.0588 53.0433 40.1221 53.3 39.0755 53.3ZM34.9455 48.01V46.78H43.1955V48.01H34.9455ZM52.0847 53C51.478 53.1267 50.878 53.1767 50.2847 53.15C49.698 53.1233 49.1714 52.9967 48.7047 52.77C48.2447 52.5433 47.8947 52.19 47.6547 51.71C47.4614 51.31 47.3547 50.9067 47.3347 50.5C47.3214 50.0867 47.3147 49.6167 47.3147 49.09V39.2H48.7747V49.03C48.7747 49.4833 48.778 49.8633 48.7847 50.17C48.798 50.47 48.868 50.7367 48.9947 50.97C49.2347 51.4167 49.6147 51.6833 50.1347 51.77C50.6614 51.8567 51.3114 51.8367 52.0847 51.71V53ZM45.0047 43.46V42.2H52.0847V43.46H45.0047ZM58.3919 53.3C57.3385 53.3 56.4252 53.0667 55.6519 52.6C54.8852 52.1333 54.2885 51.4767 53.8619 50.63C53.4352 49.7833 53.2219 48.79 53.2219 47.65C53.2219 46.47 53.4319 45.45 53.8519 44.59C54.2719 43.73 54.8619 43.0667 55.6219 42.6C56.3885 42.1333 57.2919 41.9 58.3319 41.9C59.3985 41.9 60.3085 42.1467 61.0619 42.64C61.8152 43.1267 62.3852 43.8267 62.7719 44.74C63.1585 45.6533 63.3352 46.7433 63.3019 48.01H61.8019V47.49C61.7752 46.09 61.4719 45.0333 60.8919 44.32C60.3185 43.6067 59.4785 43.25 58.3719 43.25C57.2119 43.25 56.3219 43.6267 55.7019 44.38C55.0885 45.1333 54.7819 46.2067 54.7819 47.6C54.7819 48.96 55.0885 50.0167 55.7019 50.77C56.3219 51.5167 57.1985 51.89 58.3319 51.89C59.1052 51.89 59.7785 51.7133 60.3519 51.36C60.9319 51 61.3885 50.4833 61.7219 49.81L63.0919 50.34C62.6652 51.28 62.0352 52.01 61.2019 52.53C60.3752 53.0433 59.4385 53.3 58.3919 53.3ZM54.2619 48.01V46.78H62.5119V48.01H54.2619ZM65.5211 53V42.2H66.8411V44.8L66.5811 44.46C66.7011 44.14 66.8578 43.8467 67.0511 43.58C67.2444 43.3067 67.4544 43.0833 67.6811 42.91C67.9611 42.6633 68.2878 42.4767 68.6611 42.35C69.0344 42.2167 69.4111 42.14 69.7911 42.12C70.1711 42.0933 70.5178 42.12 70.8311 42.2V43.58C70.4378 43.48 70.0078 43.4567 69.5411 43.51C69.0744 43.5633 68.6444 43.75 68.2511 44.07C67.8911 44.35 67.6211 44.6867 67.4411 45.08C67.2611 45.4667 67.1411 45.88 67.0811 46.32C67.0211 46.7533 66.9911 47.1833 66.9911 47.61V53H65.5211ZM76.3675 53.29C75.1008 53.29 74.0575 53.0167 73.2375 52.47C72.4242 51.9233 71.9242 51.1633 71.7375 50.19L73.2375 49.94C73.3975 50.5533 73.7608 51.0433 74.3275 51.41C74.9008 51.77 75.6075 51.95 76.4475 51.95C77.2675 51.95 77.9142 51.78 78.3875 51.44C78.8608 51.0933 79.0975 50.6233 79.0975 50.03C79.0975 49.6967 79.0208 49.4267 78.8675 49.22C78.7208 49.0067 78.4175 48.81 77.9575 48.63C77.4975 48.45 76.8108 48.2367 75.8975 47.99C74.9175 47.7233 74.1508 47.4567 73.5975 47.19C73.0442 46.9233 72.6508 46.6167 72.4175 46.27C72.1842 45.9167 72.0675 45.4867 72.0675 44.98C72.0675 44.3667 72.2408 43.83 72.5875 43.37C72.9342 42.9033 73.4142 42.5433 74.0275 42.29C74.6408 42.03 75.3542 41.9 76.1675 41.9C76.9808 41.9 77.7075 42.0333 78.3475 42.3C78.9942 42.56 79.5142 42.9267 79.9075 43.4C80.3008 43.8733 80.5342 44.4233 80.6075 45.05L79.1075 45.32C79.0075 44.6867 78.6908 44.1867 78.1575 43.82C77.6308 43.4467 76.9608 43.2533 76.1475 43.24C75.3808 43.22 74.7575 43.3667 74.2775 43.68C73.7975 43.9867 73.5575 44.3967 73.5575 44.91C73.5575 45.1967 73.6442 45.4433 73.8175 45.65C73.9908 45.85 74.3042 46.04 74.7575 46.22C75.2175 46.4 75.8708 46.5967 76.7175 46.81C77.7108 47.0633 78.4908 47.33 79.0575 47.61C79.6242 47.89 80.0275 48.22 80.2675 48.6C80.5075 48.98 80.6275 49.45 80.6275 50.01C80.6275 51.03 80.2475 51.8333 79.4875 52.42C78.7342 53 77.6942 53.29 76.3675 53.29Z" fill="white"/>
<path d="M327.65 53.3C326.903 53.3 326.213 53.1467 325.58 52.84C324.947 52.5333 324.407 52.11 323.96 51.57C323.513 51.03 323.193 50.41 323 49.71L324.41 49.33C324.537 49.85 324.767 50.3 325.1 50.68C325.433 51.0533 325.823 51.3433 326.27 51.55C326.723 51.7567 327.197 51.86 327.69 51.86C328.33 51.86 328.903 51.7067 329.41 51.4C329.923 51.0867 330.33 50.6733 330.63 50.16C330.93 49.6467 331.08 49.0833 331.08 48.47C331.08 47.8367 330.923 47.2667 330.61 46.76C330.297 46.2467 329.883 45.84 329.37 45.54C328.857 45.24 328.297 45.09 327.69 45.09C327.01 45.09 326.423 45.24 325.93 45.54C325.437 45.8333 325.043 46.2033 324.75 46.65L323.41 46.09L323.85 38.6H331.54V40.01H324.5L325.23 39.32L324.84 45.71L324.47 45.22C324.883 44.7467 325.383 44.3767 325.97 44.11C326.557 43.8433 327.173 43.71 327.82 43.71C328.707 43.71 329.507 43.9233 330.22 44.35C330.933 44.77 331.5 45.34 331.92 46.06C332.34 46.78 332.55 47.5833 332.55 48.47C332.55 49.35 332.327 50.1567 331.88 50.89C331.433 51.6167 330.84 52.2 330.1 52.64C329.36 53.08 328.543 53.3 327.65 53.3ZM339.643 53.3C338.756 53.3 337.956 53.0933 337.243 52.68C336.536 52.2667 335.976 51.7067 335.563 51C335.15 50.2867 334.943 49.4867 334.943 48.6V43C334.943 42.1133 335.15 41.3167 335.563 40.61C335.976 39.8967 336.536 39.3333 337.243 38.92C337.956 38.5067 338.756 38.3 339.643 38.3C340.53 38.3 341.326 38.5067 342.033 38.92C342.746 39.3333 343.31 39.8967 343.723 40.61C344.136 41.3167 344.343 42.1133 344.343 43V48.6C344.343 49.4867 344.136 50.2867 343.723 51C343.31 51.7067 342.746 52.2667 342.033 52.68C341.326 53.0933 340.53 53.3 339.643 53.3ZM339.643 51.88C340.236 51.88 340.776 51.7367 341.263 51.45C341.75 51.1567 342.136 50.7667 342.423 50.28C342.71 49.7933 342.853 49.2567 342.853 48.67V42.93C342.853 42.3367 342.71 41.7967 342.423 41.31C342.136 40.8233 341.75 40.4367 341.263 40.15C340.776 39.8567 340.236 39.71 339.643 39.71C339.05 39.71 338.51 39.8567 338.023 40.15C337.536 40.4367 337.15 40.8233 336.863 41.31C336.576 41.7967 336.433 42.3367 336.433 42.93V48.67C336.433 49.2567 336.576 49.7933 336.863 50.28C337.15 50.7667 337.536 51.1567 338.023 51.45C338.51 51.7367 339.05 51.88 339.643 51.88ZM351.85 53.3C350.963 53.3 350.163 53.0933 349.45 52.68C348.743 52.2667 348.183 51.7067 347.77 51C347.357 50.2867 347.15 49.4867 347.15 48.6V43C347.15 42.1133 347.357 41.3167 347.77 40.61C348.183 39.8967 348.743 39.3333 349.45 38.92C350.163 38.5067 350.963 38.3 351.85 38.3C352.737 38.3 353.533 38.5067 354.24 38.92C354.953 39.3333 355.517 39.8967 355.93 40.61C356.343 41.3167 356.55 42.1133 356.55 43V48.6C356.55 49.4867 356.343 50.2867 355.93 51C355.517 51.7067 354.953 52.2667 354.24 52.68C353.533 53.0933 352.737 53.3 351.85 53.3ZM351.85 51.88C352.443 51.88 352.983 51.7367 353.47 51.45C353.957 51.1567 354.343 50.7667 354.63 50.28C354.917 49.7933 355.06 49.2567 355.06 48.67V42.93C355.06 42.3367 354.917 41.7967 354.63 41.31C354.343 40.8233 353.957 40.4367 353.47 40.15C352.983 39.8567 352.443 39.71 351.85 39.71C351.257 39.71 350.717 39.8567 350.23 40.15C349.743 40.4367 349.357 40.8233 349.07 41.31C348.783 41.7967 348.64 42.3367 348.64 42.93V48.67C348.64 49.2567 348.783 49.7933 349.07 50.28C349.357 50.7667 349.743 51.1567 350.23 51.45C350.717 51.7367 351.257 51.88 351.85 51.88ZM376.241 53L376.251 45.91C376.251 45.0767 376.018 44.4233 375.551 43.95C375.091 43.47 374.504 43.23 373.791 43.23C373.384 43.23 372.988 43.3233 372.601 43.51C372.214 43.6967 371.894 43.9967 371.641 44.41C371.394 44.8233 371.271 45.3633 371.271 46.03L370.401 45.78C370.381 45.0067 370.531 44.33 370.851 43.75C371.178 43.17 371.624 42.72 372.191 42.4C372.764 42.0733 373.411 41.91 374.131 41.91C375.218 41.91 376.088 42.2467 376.741 42.92C377.394 43.5867 377.721 44.49 377.721 45.63L377.711 53H376.241ZM363.351 53V42.2H364.671V44.86H364.831V53H363.351ZM369.811 53L369.821 46.01C369.821 45.15 369.591 44.4733 369.131 43.98C368.678 43.48 368.078 43.23 367.331 43.23C366.584 43.23 365.981 43.4867 365.521 44C365.061 44.5067 364.831 45.1833 364.831 46.03L363.951 45.55C363.951 44.8567 364.114 44.2367 364.441 43.69C364.768 43.1367 365.214 42.7033 365.781 42.39C366.348 42.07 366.991 41.91 367.711 41.91C368.398 41.91 369.008 42.0567 369.541 42.35C370.081 42.6433 370.504 43.07 370.811 43.63C371.118 44.19 371.271 44.87 371.271 45.67L371.261 53H369.811ZM384.825 53.3C383.772 53.3 382.859 53.0667 382.085 52.6C381.319 52.1333 380.722 51.4767 380.295 50.63C379.869 49.7833 379.655 48.79 379.655 47.65C379.655 46.47 379.865 45.45 380.285 44.59C380.705 43.73 381.295 43.0667 382.055 42.6C382.822 42.1333 383.725 41.9 384.765 41.9C385.832 41.9 386.742 42.1467 387.495 42.64C388.249 43.1267 388.819 43.8267 389.205 44.74C389.592 45.6533 389.769 46.7433 389.735 48.01H388.235V47.49C388.209 46.09 387.905 45.0333 387.325 44.32C386.752 43.6067 385.912 43.25 384.805 43.25C383.645 43.25 382.755 43.6267 382.135 44.38C381.522 45.1333 381.215 46.2067 381.215 47.6C381.215 48.96 381.522 50.0167 382.135 50.77C382.755 51.5167 383.632 51.89 384.765 51.89C385.539 51.89 386.212 51.7133 386.785 51.36C387.365 51 387.822 50.4833 388.155 49.81L389.525 50.34C389.099 51.28 388.469 52.01 387.635 52.53C386.809 53.0433 385.872 53.3 384.825 53.3ZM380.695 48.01V46.78H388.945V48.01H380.695ZM397.835 53C397.228 53.1267 396.628 53.1767 396.035 53.15C395.448 53.1233 394.921 52.9967 394.455 52.77C393.995 52.5433 393.645 52.19 393.405 51.71C393.211 51.31 393.105 50.9067 393.085 50.5C393.071 50.0867 393.065 49.6167 393.065 49.09V39.2H394.525V49.03C394.525 49.4833 394.528 49.8633 394.535 50.17C394.548 50.47 394.618 50.7367 394.745 50.97C394.985 51.4167 395.365 51.6833 395.885 51.77C396.411 51.8567 397.061 51.8367 397.835 51.71V53ZM390.755 43.46V42.2H397.835V43.46H390.755ZM404.142 53.3C403.089 53.3 402.175 53.0667 401.402 52.6C400.635 52.1333 400.039 51.4767 399.612 50.63C399.185 49.7833 398.972 48.79 398.972 47.65C398.972 46.47 399.182 45.45 399.602 44.59C400.022 43.73 400.612 43.0667 401.372 42.6C402.139 42.1333 403.042 41.9 404.082 41.9C405.149 41.9 406.059 42.1467 406.812 42.64C407.565 43.1267 408.135 43.8267 408.522 44.74C408.909 45.6533 409.085 46.7433 409.052 48.01H407.552V47.49C407.525 46.09 407.222 45.0333 406.642 44.32C406.069 43.6067 405.229 43.25 404.122 43.25C402.962 43.25 402.072 43.6267 401.452 44.38C400.839 45.1333 400.532 46.2067 400.532 47.6C400.532 48.96 400.839 50.0167 401.452 50.77C402.072 51.5167 402.949 51.89 404.082 51.89C404.855 51.89 405.529 51.7133 406.102 51.36C406.682 51 407.139 50.4833 407.472 49.81L408.842 50.34C408.415 51.28 407.785 52.01 406.952 52.53C406.125 53.0433 405.189 53.3 404.142 53.3ZM400.012 48.01V46.78H408.262V48.01H400.012ZM411.271 53V42.2H412.591V44.8L412.331 44.46C412.451 44.14 412.608 43.8467 412.801 43.58C412.994 43.3067 413.204 43.0833 413.431 42.91C413.711 42.6633 414.038 42.4767 414.411 42.35C414.784 42.2167 415.161 42.14 415.541 42.12C415.921 42.0933 416.268 42.12 416.581 42.2V43.58C416.188 43.48 415.758 43.4567 415.291 43.51C414.824 43.5633 414.394 43.75 414.001 44.07C413.641 44.35 413.371 44.6867 413.191 45.08C413.011 45.4667 412.891 45.88 412.831 46.32C412.771 46.7533 412.741 47.1833 412.741 47.61V53H411.271ZM422.118 53.29C420.851 53.29 419.808 53.0167 418.988 52.47C418.174 51.9233 417.674 51.1633 417.488 50.19L418.988 49.94C419.148 50.5533 419.511 51.0433 420.078 51.41C420.651 51.77 421.358 51.95 422.197 51.95C423.018 51.95 423.664 51.78 424.138 51.44C424.611 51.0933 424.848 50.6233 424.848 50.03C424.848 49.6967 424.771 49.4267 424.618 49.22C424.471 49.0067 424.168 48.81 423.708 48.63C423.248 48.45 422.561 48.2367 421.648 47.99C420.668 47.7233 419.901 47.4567 419.348 47.19C418.794 46.9233 418.401 46.6167 418.168 46.27C417.934 45.9167 417.818 45.4867 417.818 44.98C417.818 44.3667 417.991 43.83 418.338 43.37C418.684 42.9033 419.164 42.5433 419.778 42.29C420.391 42.03 421.104 41.9 421.918 41.9C422.731 41.9 423.458 42.0333 424.098 42.3C424.744 42.56 425.264 42.9267 425.658 43.4C426.051 43.8733 426.284 44.4233 426.358 45.05L424.858 45.32C424.758 44.6867 424.441 44.1867 423.908 43.82C423.381 43.4467 422.711 43.2533 421.898 43.24C421.131 43.22 420.508 43.3667 420.028 43.68C419.548 43.9867 419.308 44.3967 419.308 44.91C419.308 45.1967 419.394 45.4433 419.568 45.65C419.741 45.85 420.054 46.04 420.508 46.22C420.968 46.4 421.621 46.5967 422.468 46.81C423.461 47.0633 424.241 47.33 424.808 47.61C425.374 47.89 425.778 48.22 426.018 48.6C426.258 48.98 426.378 49.45 426.378 50.01C426.378 51.03 425.998 51.8333 425.238 52.42C424.484 53 423.444 53.29 422.118 53.29Z" fill="white"/>
<path d="M701.91 53V40.24L699.2 41.87V40.22L701.91 38.6H703.4V53H701.91ZM711.893 53.3C711.006 53.3 710.206 53.0933 709.493 52.68C708.786 52.2667 708.226 51.7067 707.813 51C707.4 50.2867 707.193 49.4867 707.193 48.6V43C707.193 42.1133 707.4 41.3167 707.813 40.61C708.226 39.8967 708.786 39.3333 709.493 38.92C710.206 38.5067 711.006 38.3 711.893 38.3C712.78 38.3 713.576 38.5067 714.283 38.92C714.996 39.3333 715.56 39.8967 715.973 40.61C716.386 41.3167 716.593 42.1133 716.593 43V48.6C716.593 49.4867 716.386 50.2867 715.973 51C715.56 51.7067 714.996 52.2667 714.283 52.68C713.576 53.0933 712.78 53.3 711.893 53.3ZM711.893 51.88C712.486 51.88 713.026 51.7367 713.513 51.45C714 51.1567 714.386 50.7667 714.673 50.28C714.96 49.7933 715.103 49.2567 715.103 48.67V42.93C715.103 42.3367 714.96 41.7967 714.673 41.31C714.386 40.8233 714 40.4367 713.513 40.15C713.026 39.8567 712.486 39.71 711.893 39.71C711.3 39.71 710.76 39.8567 710.273 40.15C709.786 40.4367 709.4 40.8233 709.113 41.31C708.826 41.7967 708.683 42.3367 708.683 42.93V48.67C708.683 49.2567 708.826 49.7933 709.113 50.28C709.4 50.7667 709.786 51.1567 710.273 51.45C710.76 51.7367 711.3 51.88 711.893 51.88ZM724.1 53.3C723.213 53.3 722.413 53.0933 721.7 52.68C720.993 52.2667 720.433 51.7067 720.02 51C719.607 50.2867 719.4 49.4867 719.4 48.6V43C719.4 42.1133 719.607 41.3167 720.02 40.61C720.433 39.8967 720.993 39.3333 721.7 38.92C722.413 38.5067 723.213 38.3 724.1 38.3C724.987 38.3 725.783 38.5067 726.49 38.92C727.203 39.3333 727.767 39.8967 728.18 40.61C728.593 41.3167 728.8 42.1133 728.8 43V48.6C728.8 49.4867 728.593 50.2867 728.18 51C727.767 51.7067 727.203 52.2667 726.49 52.68C725.783 53.0933 724.987 53.3 724.1 53.3ZM724.1 51.88C724.693 51.88 725.233 51.7367 725.72 51.45C726.207 51.1567 726.593 50.7667 726.88 50.28C727.167 49.7933 727.31 49.2567 727.31 48.67V42.93C727.31 42.3367 727.167 41.7967 726.88 41.31C726.593 40.8233 726.207 40.4367 725.72 40.15C725.233 39.8567 724.693 39.71 724.1 39.71C723.507 39.71 722.967 39.8567 722.48 40.15C721.993 40.4367 721.607 40.8233 721.32 41.31C721.033 41.7967 720.89 42.3367 720.89 42.93V48.67C720.89 49.2567 721.033 49.7933 721.32 50.28C721.607 50.7667 721.993 51.1567 722.48 51.45C722.967 51.7367 723.507 51.88 724.1 51.88ZM736.307 53.3C735.42 53.3 734.62 53.0933 733.907 52.68C733.2 52.2667 732.64 51.7067 732.227 51C731.814 50.2867 731.607 49.4867 731.607 48.6V43C731.607 42.1133 731.814 41.3167 732.227 40.61C732.64 39.8967 733.2 39.3333 733.907 38.92C734.62 38.5067 735.42 38.3 736.307 38.3C737.194 38.3 737.99 38.5067 738.697 38.92C739.41 39.3333 739.974 39.8967 740.387 40.61C740.8 41.3167 741.007 42.1133 741.007 43V48.6C741.007 49.4867 740.8 50.2867 740.387 51C739.974 51.7067 739.41 52.2667 738.697 52.68C737.99 53.0933 737.194 53.3 736.307 53.3ZM736.307 51.88C736.9 51.88 737.44 51.7367 737.927 51.45C738.414 51.1567 738.8 50.7667 739.087 50.28C739.374 49.7933 739.517 49.2567 739.517 48.67V42.93C739.517 42.3367 739.374 41.7967 739.087 41.31C738.8 40.8233 738.414 40.4367 737.927 40.15C737.44 39.8567 736.9 39.71 736.307 39.71C735.714 39.71 735.174 39.8567 734.687 40.15C734.2 40.4367 733.814 40.8233 733.527 41.31C733.24 41.7967 733.097 42.3367 733.097 42.93V48.67C733.097 49.2567 733.24 49.7933 733.527 50.28C733.814 50.7667 734.2 51.1567 734.687 51.45C735.174 51.7367 735.714 51.88 736.307 51.88ZM760.698 53L760.708 45.91C760.708 45.0767 760.475 44.4233 760.008 43.95C759.548 43.47 758.961 43.23 758.248 43.23C757.841 43.23 757.445 43.3233 757.058 43.51C756.671 43.6967 756.351 43.9967 756.098 44.41C755.851 44.8233 755.728 45.3633 755.728 46.03L754.858 45.78C754.838 45.0067 754.988 44.33 755.308 43.75C755.635 43.17 756.081 42.72 756.648 42.4C757.221 42.0733 757.868 41.91 758.588 41.91C759.675 41.91 760.545 42.2467 761.198 42.92C761.851 43.5867 762.178 44.49 762.178 45.63L762.168 53H760.698ZM747.808 53V42.2H749.128V44.86H749.288V53H747.808ZM754.268 53L754.278 46.01C754.278 45.15 754.048 44.4733 753.588 43.98C753.135 43.48 752.535 43.23 751.788 43.23C751.041 43.23 750.438 43.4867 749.978 44C749.518 44.5067 749.288 45.1833 749.288 46.03L748.408 45.55C748.408 44.8567 748.571 44.2367 748.898 43.69C749.225 43.1367 749.671 42.7033 750.238 42.39C750.805 42.07 751.448 41.91 752.168 41.91C752.855 41.91 753.465 42.0567 753.998 42.35C754.538 42.6433 754.961 43.07 755.268 43.63C755.575 44.19 755.728 44.87 755.728 45.67L755.718 53H754.268ZM769.283 53.3C768.229 53.3 767.316 53.0667 766.543 52.6C765.776 52.1333 765.179 51.4767 764.753 50.63C764.326 49.7833 764.113 48.79 764.113 47.65C764.113 46.47 764.323 45.45 764.743 44.59C765.163 43.73 765.753 43.0667 766.513 42.6C767.279 42.1333 768.183 41.9 769.223 41.9C770.289 41.9 771.199 42.1467 771.953 42.64C772.706 43.1267 773.276 43.8267 773.663 44.74C774.049 45.6533 774.226 46.7433 774.193 48.01H772.693V47.49C772.666 46.09 772.363 45.0333 771.783 44.32C771.209 43.6067 770.369 43.25 769.263 43.25C768.103 43.25 767.213 43.6267 766.593 44.38C765.979 45.1333 765.673 46.2067 765.673 47.6C765.673 48.96 765.979 50.0167 766.593 50.77C767.213 51.5167 768.089 51.89 769.223 51.89C769.996 51.89 770.669 51.7133 771.243 51.36C771.823 51 772.279 50.4833 772.613 49.81L773.983 50.34C773.556 51.28 772.926 52.01 772.093 52.53C771.266 53.0433 770.329 53.3 769.283 53.3ZM765.153 48.01V46.78H773.403V48.01H765.153ZM782.292 53C781.685 53.1267 781.085 53.1767 780.492 53.15C779.905 53.1233 779.378 52.9967 778.912 52.77C778.452 52.5433 778.102 52.19 777.862 51.71C777.668 51.31 777.562 50.9067 777.542 50.5C777.528 50.0867 777.522 49.6167 777.522 49.09V39.2H778.982V49.03C778.982 49.4833 778.985 49.8633 778.992 50.17C779.005 50.47 779.075 50.7367 779.202 50.97C779.442 51.4167 779.822 51.6833 780.342 51.77C780.868 51.8567 781.518 51.8367 782.292 51.71V53ZM775.212 43.46V42.2H782.292V43.46H775.212ZM788.599 53.3C787.546 53.3 786.632 53.0667 785.859 52.6C785.092 52.1333 784.496 51.4767 784.069 50.63C783.642 49.7833 783.429 48.79 783.429 47.65C783.429 46.47 783.639 45.45 784.059 44.59C784.479 43.73 785.069 43.0667 785.829 42.6C786.596 42.1333 787.499 41.9 788.539 41.9C789.606 41.9 790.516 42.1467 791.269 42.64C792.022 43.1267 792.592 43.8267 792.979 44.74C793.366 45.6533 793.542 46.7433 793.509 48.01H792.009V47.49C791.982 46.09 791.679 45.0333 791.099 44.32C790.526 43.6067 789.686 43.25 788.579 43.25C787.419 43.25 786.529 43.6267 785.909 44.38C785.296 45.1333 784.989 46.2067 784.989 47.6C784.989 48.96 785.296 50.0167 785.909 50.77C786.529 51.5167 787.406 51.89 788.539 51.89C789.312 51.89 789.986 51.7133 790.559 51.36C791.139 51 791.596 50.4833 791.929 49.81L793.299 50.34C792.872 51.28 792.242 52.01 791.409 52.53C790.582 53.0433 789.646 53.3 788.599 53.3ZM784.469 48.01V46.78H792.719V48.01H784.469ZM795.728 53V42.2H797.048V44.8L796.788 44.46C796.908 44.14 797.065 43.8467 797.258 43.58C797.451 43.3067 797.661 43.0833 797.888 42.91C798.168 42.6633 798.495 42.4767 798.868 42.35C799.241 42.2167 799.618 42.14 799.998 42.12C800.378 42.0933 800.725 42.12 801.038 42.2V43.58C800.645 43.48 800.215 43.4567 799.748 43.51C799.281 43.5633 798.851 43.75 798.458 44.07C798.098 44.35 797.828 44.6867 797.648 45.08C797.468 45.4667 797.348 45.88 797.288 46.32C797.228 46.7533 797.198 47.1833 797.198 47.61V53H795.728ZM806.575 53.29C805.308 53.29 804.265 53.0167 803.445 52.47C802.631 51.9233 802.131 51.1633 801.945 50.19L803.445 49.94C803.605 50.5533 803.968 51.0433 804.535 51.41C805.108 51.77 805.815 51.95 806.655 51.95C807.475 51.95 808.121 51.78 808.595 51.44C809.068 51.0933 809.305 50.6233 809.305 50.03C809.305 49.6967 809.228 49.4267 809.075 49.22C808.928 49.0067 808.625 48.81 808.165 48.63C807.705 48.45 807.018 48.2367 806.105 47.99C805.125 47.7233 804.358 47.4567 803.805 47.19C803.251 46.9233 802.858 46.6167 802.625 46.27C802.391 45.9167 802.275 45.4867 802.275 44.98C802.275 44.3667 802.448 43.83 802.795 43.37C803.141 42.9033 803.621 42.5433 804.235 42.29C804.848 42.03 805.561 41.9 806.375 41.9C807.188 41.9 807.915 42.0333 808.555 42.3C809.201 42.56 809.721 42.9267 810.115 43.4C810.508 43.8733 810.741 44.4233 810.815 45.05L809.315 45.32C809.215 44.6867 808.898 44.1867 808.365 43.82C807.838 43.4467 807.168 43.2533 806.355 43.24C805.588 43.22 804.965 43.3667 804.485 43.68C804.005 43.9867 803.765 44.3967 803.765 44.91C803.765 45.1967 803.851 45.4433 804.025 45.65C804.198 45.85 804.511 46.04 804.965 46.22C805.425 46.4 806.078 46.5967 806.925 46.81C807.918 47.0633 808.698 47.33 809.265 47.61C809.831 47.89 810.235 48.22 810.475 48.6C810.715 48.98 810.835 49.45 810.835 50.01C810.835 51.03 810.455 51.8333 809.695 52.42C808.941 53 807.901 53.29 806.575 53.29Z" fill="white"/>
<path d="M1071.91 53V40.24L1069.2 41.87V40.22L1071.91 38.6H1073.4V53H1071.91ZM1081.44 53.3C1080.7 53.3 1080.01 53.1467 1079.37 52.84C1078.74 52.5333 1078.2 52.11 1077.75 51.57C1077.31 51.03 1076.99 50.41 1076.79 49.71L1078.2 49.33C1078.33 49.85 1078.56 50.3 1078.89 50.68C1079.23 51.0533 1079.62 51.3433 1080.06 51.55C1080.52 51.7567 1080.99 51.86 1081.48 51.86C1082.12 51.86 1082.7 51.7067 1083.2 51.4C1083.72 51.0867 1084.12 50.6733 1084.42 50.16C1084.72 49.6467 1084.87 49.0833 1084.87 48.47C1084.87 47.8367 1084.72 47.2667 1084.4 46.76C1084.09 46.2467 1083.68 45.84 1083.16 45.54C1082.65 45.24 1082.09 45.09 1081.48 45.09C1080.8 45.09 1080.22 45.24 1079.72 45.54C1079.23 45.8333 1078.84 46.2033 1078.54 46.65L1077.2 46.09L1077.64 38.6H1085.33V40.01H1078.29L1079.02 39.32L1078.63 45.71L1078.26 45.22C1078.68 44.7467 1079.18 44.3767 1079.76 44.11C1080.35 43.8433 1080.97 43.71 1081.61 43.71C1082.5 43.71 1083.3 43.9233 1084.01 44.35C1084.73 44.77 1085.29 45.34 1085.71 46.06C1086.13 46.78 1086.34 47.5833 1086.34 48.47C1086.34 49.35 1086.12 50.1567 1085.67 50.89C1085.23 51.6167 1084.63 52.2 1083.89 52.64C1083.15 53.08 1082.34 53.3 1081.44 53.3ZM1093.44 53.3C1092.55 53.3 1091.75 53.0933 1091.04 52.68C1090.33 52.2667 1089.77 51.7067 1089.36 51C1088.94 50.2867 1088.74 49.4867 1088.74 48.6V43C1088.74 42.1133 1088.94 41.3167 1089.36 40.61C1089.77 39.8967 1090.33 39.3333 1091.04 38.92C1091.75 38.5067 1092.55 38.3 1093.44 38.3C1094.32 38.3 1095.12 38.5067 1095.83 38.92C1096.54 39.3333 1097.1 39.8967 1097.52 40.61C1097.93 41.3167 1098.14 42.1133 1098.14 43V48.6C1098.14 49.4867 1097.93 50.2867 1097.52 51C1097.1 51.7067 1096.54 52.2667 1095.83 52.68C1095.12 53.0933 1094.32 53.3 1093.44 53.3ZM1093.44 51.88C1094.03 51.88 1094.57 51.7367 1095.06 51.45C1095.54 51.1567 1095.93 50.7667 1096.22 50.28C1096.5 49.7933 1096.65 49.2567 1096.65 48.67V42.93C1096.65 42.3367 1096.5 41.7967 1096.22 41.31C1095.93 40.8233 1095.54 40.4367 1095.06 40.15C1094.57 39.8567 1094.03 39.71 1093.44 39.71C1092.84 39.71 1092.3 39.8567 1091.82 40.15C1091.33 40.4367 1090.94 40.8233 1090.66 41.31C1090.37 41.7967 1090.23 42.3367 1090.23 42.93V48.67C1090.23 49.2567 1090.37 49.7933 1090.66 50.28C1090.94 50.7667 1091.33 51.1567 1091.82 51.45C1092.3 51.7367 1092.84 51.88 1093.44 51.88ZM1105.64 53.3C1104.76 53.3 1103.96 53.0933 1103.24 52.68C1102.54 52.2667 1101.98 51.7067 1101.56 51C1101.15 50.2867 1100.94 49.4867 1100.94 48.6V43C1100.94 42.1133 1101.15 41.3167 1101.56 40.61C1101.98 39.8967 1102.54 39.3333 1103.24 38.92C1103.96 38.5067 1104.76 38.3 1105.64 38.3C1106.53 38.3 1107.33 38.5067 1108.03 38.92C1108.75 39.3333 1109.31 39.8967 1109.72 40.61C1110.14 41.3167 1110.34 42.1133 1110.34 43V48.6C1110.34 49.4867 1110.14 50.2867 1109.72 51C1109.31 51.7067 1108.75 52.2667 1108.03 52.68C1107.33 53.0933 1106.53 53.3 1105.64 53.3ZM1105.64 51.88C1106.24 51.88 1106.78 51.7367 1107.26 51.45C1107.75 51.1567 1108.14 50.7667 1108.42 50.28C1108.71 49.7933 1108.85 49.2567 1108.85 48.67V42.93C1108.85 42.3367 1108.71 41.7967 1108.42 41.31C1108.14 40.8233 1107.75 40.4367 1107.26 40.15C1106.78 39.8567 1106.24 39.71 1105.64 39.71C1105.05 39.71 1104.51 39.8567 1104.02 40.15C1103.54 40.4367 1103.15 40.8233 1102.86 41.31C1102.58 41.7967 1102.43 42.3367 1102.43 42.93V48.67C1102.43 49.2567 1102.58 49.7933 1102.86 50.28C1103.15 50.7667 1103.54 51.1567 1104.02 51.45C1104.51 51.7367 1105.05 51.88 1105.64 51.88ZM1130.03 53L1130.04 45.91C1130.04 45.0767 1129.81 44.4233 1129.34 43.95C1128.88 43.47 1128.3 43.23 1127.58 43.23C1127.18 43.23 1126.78 43.3233 1126.39 43.51C1126.01 43.6967 1125.69 43.9967 1125.43 44.41C1125.19 44.8233 1125.06 45.3633 1125.06 46.03L1124.19 45.78C1124.17 45.0067 1124.32 44.33 1124.64 43.75C1124.97 43.17 1125.42 42.72 1125.98 42.4C1126.56 42.0733 1127.2 41.91 1127.92 41.91C1129.01 41.91 1129.88 42.2467 1130.53 42.92C1131.19 43.5867 1131.51 44.49 1131.51 45.63L1131.5 53H1130.03ZM1117.14 53V42.2H1118.46V44.86H1118.62V53H1117.14ZM1123.6 53L1123.61 46.01C1123.61 45.15 1123.38 44.4733 1122.92 43.98C1122.47 43.48 1121.87 43.23 1121.12 43.23C1120.38 43.23 1119.77 43.4867 1119.31 44C1118.85 44.5067 1118.62 45.1833 1118.62 46.03L1117.74 45.55C1117.74 44.8567 1117.91 44.2367 1118.23 43.69C1118.56 43.1367 1119.01 42.7033 1119.57 42.39C1120.14 42.07 1120.78 41.91 1121.5 41.91C1122.19 41.91 1122.8 42.0567 1123.33 42.35C1123.87 42.6433 1124.3 43.07 1124.6 43.63C1124.91 44.19 1125.06 44.87 1125.06 45.67L1125.05 53H1123.6ZM1138.62 53.3C1137.57 53.3 1136.65 53.0667 1135.88 52.6C1135.11 52.1333 1134.52 51.4767 1134.09 50.63C1133.66 49.7833 1133.45 48.79 1133.45 47.65C1133.45 46.47 1133.66 45.45 1134.08 44.59C1134.5 43.73 1135.09 43.0667 1135.85 42.6C1136.62 42.1333 1137.52 41.9 1138.56 41.9C1139.63 41.9 1140.54 42.1467 1141.29 42.64C1142.04 43.1267 1142.61 43.8267 1143 44.74C1143.39 45.6533 1143.56 46.7433 1143.53 48.01H1142.03V47.49C1142 46.09 1141.7 45.0333 1141.12 44.32C1140.55 43.6067 1139.71 43.25 1138.6 43.25C1137.44 43.25 1136.55 43.6267 1135.93 44.38C1135.32 45.1333 1135.01 46.2067 1135.01 47.6C1135.01 48.96 1135.32 50.0167 1135.93 50.77C1136.55 51.5167 1137.43 51.89 1138.56 51.89C1139.33 51.89 1140.01 51.7133 1140.58 51.36C1141.16 51 1141.62 50.4833 1141.95 49.81L1143.32 50.34C1142.89 51.28 1142.26 52.01 1141.43 52.53C1140.6 53.0433 1139.67 53.3 1138.62 53.3ZM1134.49 48.01V46.78H1142.74V48.01H1134.49ZM1151.63 53C1151.02 53.1267 1150.42 53.1767 1149.83 53.15C1149.24 53.1233 1148.71 52.9967 1148.25 52.77C1147.79 52.5433 1147.44 52.19 1147.2 51.71C1147 51.31 1146.9 50.9067 1146.88 50.5C1146.86 50.0867 1146.86 49.6167 1146.86 49.09V39.2H1148.32V49.03C1148.32 49.4833 1148.32 49.8633 1148.33 50.17C1148.34 50.47 1148.41 50.7367 1148.54 50.97C1148.78 51.4167 1149.16 51.6833 1149.68 51.77C1150.2 51.8567 1150.85 51.8367 1151.63 51.71V53ZM1144.55 43.46V42.2H1151.63V43.46H1144.55ZM1157.93 53.3C1156.88 53.3 1155.97 53.0667 1155.19 52.6C1154.43 52.1333 1153.83 51.4767 1153.4 50.63C1152.98 49.7833 1152.76 48.79 1152.76 47.65C1152.76 46.47 1152.97 45.45 1153.39 44.59C1153.81 43.73 1154.4 43.0667 1155.16 42.6C1155.93 42.1333 1156.83 41.9 1157.87 41.9C1158.94 41.9 1159.85 42.1467 1160.6 42.64C1161.36 43.1267 1161.93 43.8267 1162.31 44.74C1162.7 45.6533 1162.88 46.7433 1162.84 48.01H1161.34V47.49C1161.32 46.09 1161.01 45.0333 1160.43 44.32C1159.86 43.6067 1159.02 43.25 1157.91 43.25C1156.75 43.25 1155.86 43.6267 1155.24 44.38C1154.63 45.1333 1154.32 46.2067 1154.32 47.6C1154.32 48.96 1154.63 50.0167 1155.24 50.77C1155.86 51.5167 1156.74 51.89 1157.87 51.89C1158.65 51.89 1159.32 51.7133 1159.89 51.36C1160.47 51 1160.93 50.4833 1161.26 49.81L1162.63 50.34C1162.21 51.28 1161.58 52.01 1160.74 52.53C1159.92 53.0433 1158.98 53.3 1157.93 53.3ZM1153.8 48.01V46.78H1162.05V48.01H1153.8ZM1165.06 53V42.2H1166.38V44.8L1166.12 44.46C1166.24 44.14 1166.4 43.8467 1166.59 43.58C1166.79 43.3067 1167 43.0833 1167.22 42.91C1167.5 42.6633 1167.83 42.4767 1168.2 42.35C1168.58 42.2167 1168.95 42.14 1169.33 42.12C1169.71 42.0933 1170.06 42.12 1170.37 42.2V43.58C1169.98 43.48 1169.55 43.4567 1169.08 43.51C1168.62 43.5633 1168.19 43.75 1167.79 44.07C1167.43 44.35 1167.16 44.6867 1166.98 45.08C1166.8 45.4667 1166.68 45.88 1166.62 46.32C1166.56 46.7533 1166.53 47.1833 1166.53 47.61V53H1165.06ZM1175.91 53.29C1174.64 53.29 1173.6 53.0167 1172.78 52.47C1171.97 51.9233 1171.47 51.1633 1171.28 50.19L1172.78 49.94C1172.94 50.5533 1173.3 51.0433 1173.87 51.41C1174.44 51.77 1175.15 51.95 1175.99 51.95C1176.81 51.95 1177.46 51.78 1177.93 51.44C1178.4 51.0933 1178.64 50.6233 1178.64 50.03C1178.64 49.6967 1178.56 49.4267 1178.41 49.22C1178.26 49.0067 1177.96 48.81 1177.5 48.63C1177.04 48.45 1176.35 48.2367 1175.44 47.99C1174.46 47.7233 1173.69 47.4567 1173.14 47.19C1172.59 46.9233 1172.19 46.6167 1171.96 46.27C1171.73 45.9167 1171.61 45.4867 1171.61 44.98C1171.61 44.3667 1171.78 43.83 1172.13 43.37C1172.48 42.9033 1172.96 42.5433 1173.57 42.29C1174.18 42.03 1174.9 41.9 1175.71 41.9C1176.52 41.9 1177.25 42.0333 1177.89 42.3C1178.54 42.56 1179.06 42.9267 1179.45 43.4C1179.84 43.8733 1180.08 44.4233 1180.15 45.05L1178.65 45.32C1178.55 44.6867 1178.23 44.1867 1177.7 43.82C1177.17 43.4467 1176.5 43.2533 1175.69 43.24C1174.92 43.22 1174.3 43.3667 1173.82 43.68C1173.34 43.9867 1173.1 44.3967 1173.1 44.91C1173.1 45.1967 1173.19 45.4433 1173.36 45.65C1173.53 45.85 1173.85 46.04 1174.3 46.22C1174.76 46.4 1175.41 46.5967 1176.26 46.81C1177.25 47.0633 1178.03 47.33 1178.6 47.61C1179.17 47.89 1179.57 48.22 1179.81 48.6C1180.05 48.98 1180.17 49.45 1180.17 50.01C1180.17 51.03 1179.79 51.8333 1179.03 52.42C1178.28 53 1177.24 53.29 1175.91 53.29Z" fill="white"/>
<path d="M1384 52.99L1384.01 51.65L1390.52 45.77C1391.08 45.2633 1391.45 44.7833 1391.63 44.33C1391.82 43.87 1391.91 43.39 1391.91 42.89C1391.91 42.2967 1391.77 41.76 1391.49 41.28C1391.21 40.8 1390.83 40.42 1390.36 40.14C1389.89 39.8533 1389.36 39.71 1388.77 39.71C1388.16 39.71 1387.61 39.8567 1387.13 40.15C1386.65 40.4433 1386.27 40.83 1385.99 41.31C1385.72 41.79 1385.58 42.3133 1385.59 42.88H1384.09C1384.09 42.0067 1384.3 41.2233 1384.71 40.53C1385.12 39.8367 1385.68 39.2933 1386.39 38.9C1387.1 38.5 1387.9 38.3 1388.79 38.3C1389.66 38.3 1390.45 38.5067 1391.14 38.92C1391.84 39.3267 1392.39 39.88 1392.79 40.58C1393.2 41.2733 1393.4 42.0467 1393.4 42.9C1393.4 43.5 1393.33 44.03 1393.18 44.49C1393.04 44.9433 1392.82 45.3667 1392.51 45.76C1392.21 46.1467 1391.83 46.5467 1391.36 46.96L1385.58 52.18L1385.35 51.58H1393.4V52.99H1384ZM1400.51 53.3C1399.62 53.3 1398.82 53.0933 1398.11 52.68C1397.4 52.2667 1396.84 51.7067 1396.43 51C1396.01 50.2867 1395.81 49.4867 1395.81 48.6V43C1395.81 42.1133 1396.01 41.3167 1396.43 40.61C1396.84 39.8967 1397.4 39.3333 1398.11 38.92C1398.82 38.5067 1399.62 38.3 1400.51 38.3C1401.39 38.3 1402.19 38.5067 1402.9 38.92C1403.61 39.3333 1404.17 39.8967 1404.59 40.61C1405 41.3167 1405.21 42.1133 1405.21 43V48.6C1405.21 49.4867 1405 50.2867 1404.59 51C1404.17 51.7067 1403.61 52.2667 1402.9 52.68C1402.19 53.0933 1401.39 53.3 1400.51 53.3ZM1400.51 51.88C1401.1 51.88 1401.64 51.7367 1402.13 51.45C1402.61 51.1567 1403 50.7667 1403.29 50.28C1403.57 49.7933 1403.72 49.2567 1403.72 48.67V42.93C1403.72 42.3367 1403.57 41.7967 1403.29 41.31C1403 40.8233 1402.61 40.4367 1402.13 40.15C1401.64 39.8567 1401.1 39.71 1400.51 39.71C1399.91 39.71 1399.37 39.8567 1398.89 40.15C1398.4 40.4367 1398.01 40.8233 1397.73 41.31C1397.44 41.7967 1397.3 42.3367 1397.3 42.93V48.67C1397.3 49.2567 1397.44 49.7933 1397.73 50.28C1398.01 50.7667 1398.4 51.1567 1398.89 51.45C1399.37 51.7367 1399.91 51.88 1400.51 51.88ZM1412.71 53.3C1411.83 53.3 1411.03 53.0933 1410.31 52.68C1409.61 52.2667 1409.05 51.7067 1408.63 51C1408.22 50.2867 1408.01 49.4867 1408.01 48.6V43C1408.01 42.1133 1408.22 41.3167 1408.63 40.61C1409.05 39.8967 1409.61 39.3333 1410.31 38.92C1411.03 38.5067 1411.83 38.3 1412.71 38.3C1413.6 38.3 1414.4 38.5067 1415.1 38.92C1415.82 39.3333 1416.38 39.8967 1416.79 40.61C1417.21 41.3167 1417.41 42.1133 1417.41 43V48.6C1417.41 49.4867 1417.21 50.2867 1416.79 51C1416.38 51.7067 1415.82 52.2667 1415.1 52.68C1414.4 53.0933 1413.6 53.3 1412.71 53.3ZM1412.71 51.88C1413.31 51.88 1413.85 51.7367 1414.33 51.45C1414.82 51.1567 1415.21 50.7667 1415.49 50.28C1415.78 49.7933 1415.92 49.2567 1415.92 48.67V42.93C1415.92 42.3367 1415.78 41.7967 1415.49 41.31C1415.21 40.8233 1414.82 40.4367 1414.33 40.15C1413.85 39.8567 1413.31 39.71 1412.71 39.71C1412.12 39.71 1411.58 39.8567 1411.09 40.15C1410.61 40.4367 1410.22 40.8233 1409.93 41.31C1409.65 41.7967 1409.5 42.3367 1409.5 42.93V48.67C1409.5 49.2567 1409.65 49.7933 1409.93 50.28C1410.22 50.7667 1410.61 51.1567 1411.09 51.45C1411.58 51.7367 1412.12 51.88 1412.71 51.88ZM1424.92 53.3C1424.03 53.3 1423.23 53.0933 1422.52 52.68C1421.81 52.2667 1421.25 51.7067 1420.84 51C1420.43 50.2867 1420.22 49.4867 1420.22 48.6V43C1420.22 42.1133 1420.43 41.3167 1420.84 40.61C1421.25 39.8967 1421.81 39.3333 1422.52 38.92C1423.23 38.5067 1424.03 38.3 1424.92 38.3C1425.81 38.3 1426.6 38.5067 1427.31 38.92C1428.02 39.3333 1428.59 39.8967 1429 40.61C1429.41 41.3167 1429.62 42.1133 1429.62 43V48.6C1429.62 49.4867 1429.41 50.2867 1429 51C1428.59 51.7067 1428.02 52.2667 1427.31 52.68C1426.6 53.0933 1425.81 53.3 1424.92 53.3ZM1424.92 51.88C1425.51 51.88 1426.05 51.7367 1426.54 51.45C1427.03 51.1567 1427.41 50.7667 1427.7 50.28C1427.99 49.7933 1428.13 49.2567 1428.13 48.67V42.93C1428.13 42.3367 1427.99 41.7967 1427.7 41.31C1427.41 40.8233 1427.03 40.4367 1426.54 40.15C1426.05 39.8567 1425.51 39.71 1424.92 39.71C1424.33 39.71 1423.79 39.8567 1423.3 40.15C1422.81 40.4367 1422.43 40.8233 1422.14 41.31C1421.85 41.7967 1421.71 42.3367 1421.71 42.93V48.67C1421.71 49.2567 1421.85 49.7933 1422.14 50.28C1422.43 50.7667 1422.81 51.1567 1423.3 51.45C1423.79 51.7367 1424.33 51.88 1424.92 51.88ZM1449.31 53L1449.32 45.91C1449.32 45.0767 1449.09 44.4233 1448.62 43.95C1448.16 43.47 1447.57 43.23 1446.86 43.23C1446.45 43.23 1446.06 43.3233 1445.67 43.51C1445.28 43.6967 1444.96 43.9967 1444.71 44.41C1444.46 44.8233 1444.34 45.3633 1444.34 46.03L1443.47 45.78C1443.45 45.0067 1443.6 44.33 1443.92 43.75C1444.25 43.17 1444.69 42.72 1445.26 42.4C1445.83 42.0733 1446.48 41.91 1447.2 41.91C1448.29 41.91 1449.16 42.2467 1449.81 42.92C1450.46 43.5867 1450.79 44.49 1450.79 45.63L1450.78 53H1449.31ZM1436.42 53V42.2H1437.74V44.86H1437.9V53H1436.42ZM1442.88 53L1442.89 46.01C1442.89 45.15 1442.66 44.4733 1442.2 43.98C1441.75 43.48 1441.15 43.23 1440.4 43.23C1439.65 43.23 1439.05 43.4867 1438.59 44C1438.13 44.5067 1437.9 45.1833 1437.9 46.03L1437.02 45.55C1437.02 44.8567 1437.18 44.2367 1437.51 43.69C1437.84 43.1367 1438.28 42.7033 1438.85 42.39C1439.42 42.07 1440.06 41.91 1440.78 41.91C1441.47 41.91 1442.08 42.0567 1442.61 42.35C1443.15 42.6433 1443.57 43.07 1443.88 43.63C1444.19 44.19 1444.34 44.87 1444.34 45.67L1444.33 53H1442.88ZM1457.9 53.3C1456.84 53.3 1455.93 53.0667 1455.16 52.6C1454.39 52.1333 1453.79 51.4767 1453.37 50.63C1452.94 49.7833 1452.73 48.79 1452.73 47.65C1452.73 46.47 1452.94 45.45 1453.36 44.59C1453.78 43.73 1454.37 43.0667 1455.13 42.6C1455.89 42.1333 1456.8 41.9 1457.84 41.9C1458.9 41.9 1459.81 42.1467 1460.57 42.64C1461.32 43.1267 1461.89 43.8267 1462.28 44.74C1462.66 45.6533 1462.84 46.7433 1462.81 48.01H1461.31V47.49C1461.28 46.09 1460.98 45.0333 1460.4 44.32C1459.82 43.6067 1458.98 43.25 1457.88 43.25C1456.72 43.25 1455.83 43.6267 1455.21 44.38C1454.59 45.1333 1454.29 46.2067 1454.29 47.6C1454.29 48.96 1454.59 50.0167 1455.21 50.77C1455.83 51.5167 1456.7 51.89 1457.84 51.89C1458.61 51.89 1459.28 51.7133 1459.86 51.36C1460.44 51 1460.89 50.4833 1461.23 49.81L1462.6 50.34C1462.17 51.28 1461.54 52.01 1460.71 52.53C1459.88 53.0433 1458.94 53.3 1457.9 53.3ZM1453.77 48.01V46.78H1462.02V48.01H1453.77ZM1470.91 53C1470.3 53.1267 1469.7 53.1767 1469.11 53.15C1468.52 53.1233 1467.99 52.9967 1467.53 52.77C1467.07 52.5433 1466.72 52.19 1466.48 51.71C1466.28 51.31 1466.18 50.9067 1466.16 50.5C1466.14 50.0867 1466.14 49.6167 1466.14 49.09V39.2H1467.6V49.03C1467.6 49.4833 1467.6 49.8633 1467.61 50.17C1467.62 50.47 1467.69 50.7367 1467.82 50.97C1468.06 51.4167 1468.44 51.6833 1468.96 51.77C1469.48 51.8567 1470.13 51.8367 1470.91 51.71V53ZM1463.83 43.46V42.2H1470.91V43.46H1463.83ZM1477.21 53.3C1476.16 53.3 1475.25 53.0667 1474.47 52.6C1473.71 52.1333 1473.11 51.4767 1472.68 50.63C1472.26 49.7833 1472.04 48.79 1472.04 47.65C1472.04 46.47 1472.25 45.45 1472.67 44.59C1473.09 43.73 1473.68 43.0667 1474.44 42.6C1475.21 42.1333 1476.11 41.9 1477.15 41.9C1478.22 41.9 1479.13 42.1467 1479.88 42.64C1480.64 43.1267 1481.21 43.8267 1481.59 44.74C1481.98 45.6533 1482.16 46.7433 1482.12 48.01H1480.62V47.49C1480.6 46.09 1480.29 45.0333 1479.71 44.32C1479.14 43.6067 1478.3 43.25 1477.19 43.25C1476.03 43.25 1475.14 43.6267 1474.52 44.38C1473.91 45.1333 1473.6 46.2067 1473.6 47.6C1473.6 48.96 1473.91 50.0167 1474.52 50.77C1475.14 51.5167 1476.02 51.89 1477.15 51.89C1477.93 51.89 1478.6 51.7133 1479.17 51.36C1479.75 51 1480.21 50.4833 1480.54 49.81L1481.91 50.34C1481.49 51.28 1480.86 52.01 1480.02 52.53C1479.2 53.0433 1478.26 53.3 1477.21 53.3ZM1473.08 48.01V46.78H1481.33V48.01H1473.08ZM1484.34 53V42.2H1485.66V44.8L1485.4 44.46C1485.52 44.14 1485.68 43.8467 1485.87 43.58C1486.06 43.3067 1486.27 43.0833 1486.5 42.91C1486.78 42.6633 1487.11 42.4767 1487.48 42.35C1487.85 42.2167 1488.23 42.14 1488.61 42.12C1488.99 42.0933 1489.34 42.12 1489.65 42.2V43.58C1489.26 43.48 1488.83 43.4567 1488.36 43.51C1487.89 43.5633 1487.46 43.75 1487.07 44.07C1486.71 44.35 1486.44 44.6867 1486.26 45.08C1486.08 45.4667 1485.96 45.88 1485.9 46.32C1485.84 46.7533 1485.81 47.1833 1485.81 47.61V53H1484.34ZM1495.19 53.29C1493.92 53.29 1492.88 53.0167 1492.06 52.47C1491.24 51.9233 1490.74 51.1633 1490.56 50.19L1492.06 49.94C1492.22 50.5533 1492.58 51.0433 1493.15 51.41C1493.72 51.77 1494.43 51.95 1495.27 51.95C1496.09 51.95 1496.73 51.78 1497.21 51.44C1497.68 51.0933 1497.92 50.6233 1497.92 50.03C1497.92 49.6967 1497.84 49.4267 1497.69 49.22C1497.54 49.0067 1497.24 48.81 1496.78 48.63C1496.32 48.45 1495.63 48.2367 1494.72 47.99C1493.74 47.7233 1492.97 47.4567 1492.42 47.19C1491.86 46.9233 1491.47 46.6167 1491.24 46.27C1491 45.9167 1490.89 45.4867 1490.89 44.98C1490.89 44.3667 1491.06 43.83 1491.41 43.37C1491.75 42.9033 1492.23 42.5433 1492.85 42.29C1493.46 42.03 1494.17 41.9 1494.99 41.9C1495.8 41.9 1496.53 42.0333 1497.17 42.3C1497.81 42.56 1498.33 42.9267 1498.73 43.4C1499.12 43.8733 1499.35 44.4233 1499.43 45.05L1497.93 45.32C1497.83 44.6867 1497.51 44.1867 1496.98 43.82C1496.45 43.4467 1495.78 43.2533 1494.97 43.24C1494.2 43.22 1493.58 43.3667 1493.1 43.68C1492.62 43.9867 1492.38 44.3967 1492.38 44.91C1492.38 45.1967 1492.46 45.4433 1492.64 45.65C1492.81 45.85 1493.12 46.04 1493.58 46.22C1494.04 46.4 1494.69 46.5967 1495.54 46.81C1496.53 47.0633 1497.31 47.33 1497.88 47.61C1498.44 47.89 1498.85 48.22 1499.09 48.6C1499.33 48.98 1499.45 49.45 1499.45 50.01C1499.45 51.03 1499.07 51.8333 1498.31 52.42C1497.55 53 1496.51 53.29 1495.19 53.29Z" fill="white"/>
</svg>
