<svg width="233" height="47" viewBox="0 0 233 47" fill="none" xmlns="http://www.w3.org/2000/svg">
<path d="M20.1562 8.3125H19.4688C19.3021 7.83333 19.0312 7.29167 18.6562 6.6875C18.3021 6.08333 17.8229 5.52083 17.2188 5C16.6354 4.45833 15.9167 4.01042 15.0625 3.65625C14.2292 3.30208 13.2396 3.125 12.0938 3.125C11.0729 3.125 10.1667 3.28125 9.375 3.59375C8.58333 3.90625 7.91667 4.34375 7.375 4.90625C6.85417 5.46875 6.45833 6.13542 6.1875 6.90625C5.91667 7.67708 5.78125 8.53125 5.78125 9.46875C5.78125 10.9688 6.19792 12.4062 7.03125 13.7812C7.88542 15.1354 8.94792 16.4792 10.2188 17.8125C11.4896 19.1458 12.8646 20.4792 14.3438 21.8125C15.8229 23.1458 17.1979 24.5312 18.4688 25.9688C19.7396 27.4062 20.7917 28.9167 21.625 30.5C22.4792 32.0625 22.9062 33.75 22.9062 35.5625C22.9062 36.9167 22.6667 38.2812 22.1875 39.6562C21.7292 41.0104 21.0104 42.2292 20.0312 43.3125C19.0521 44.3958 17.7917 45.2812 16.25 45.9688C14.7083 46.6354 12.875 46.9688 10.75 46.9688C9.5625 46.9688 8.42708 46.8542 7.34375 46.625C6.28125 46.4167 5.29167 46.1562 4.375 45.8438C3.47917 45.5104 2.66667 45.1562 1.9375 44.7812C1.22917 44.4062 0.645833 44.0625 0.1875 43.75L0.90625 36.8438H1.6875C1.91667 37.8229 2.29167 38.7604 2.8125 39.6562C3.33333 40.5312 3.96875 41.3125 4.71875 42C5.48958 42.6667 6.36458 43.2083 7.34375 43.625C8.32292 44.0208 9.39583 44.2188 10.5625 44.2188C11.625 44.2188 12.5729 44.0625 13.4062 43.75C14.2604 43.4167 14.9896 42.9688 15.5938 42.4062C16.1979 41.8229 16.6562 41.1354 16.9688 40.3438C17.3021 39.5521 17.4688 38.6875 17.4688 37.75C17.4688 36.4375 17.2292 35.2292 16.75 34.125C16.2708 33 15.6354 31.9375 14.8438 30.9375C14.0729 29.9375 13.1875 28.9688 12.1875 28.0312C11.2083 27.0938 10.1979 26.1562 9.15625 25.2188C8.11458 24.2604 7.09375 23.2812 6.09375 22.2812C5.11458 21.2812 4.22917 20.2188 3.4375 19.0938C2.66667 17.9479 2.04167 16.7292 1.5625 15.4375C1.08333 14.125 0.84375 12.6875 0.84375 11.125C0.84375 9.47917 1.15625 8 1.78125 6.6875C2.42708 5.35417 3.27083 4.21875 4.3125 3.28125C5.375 2.34375 6.57292 1.625 7.90625 1.125C9.23958 0.625 10.6146 0.375 12.0312 0.375C13.0729 0.375 14.0312 0.458333 14.9062 0.625C15.7812 0.791667 16.5625 0.989583 17.25 1.21875C17.9583 1.44792 18.5729 1.67708 19.0938 1.90625C19.6146 2.13542 20.0417 2.32292 20.375 2.46875L20.1562 8.3125ZM30.2188 12.4062C32.2604 12.4062 34.3542 12.4062 36.5 12.4062C38.6458 12.3854 40.6354 12.3646 42.4688 12.3438C44.3021 12.3021 45.875 12.2604 47.1875 12.2188C48.5208 12.1771 49.3958 12.1146 49.8125 12.0312L48.5938 15.4062C48.0312 15.2604 47.3958 15.125 46.6875 15C46.0625 14.8958 45.3021 14.8021 44.4062 14.7188C43.5312 14.6146 42.5104 14.5625 41.3438 14.5625C40.9271 14.5625 40.4479 14.5833 39.9062 14.625C39.3646 14.6458 38.8438 14.6771 38.3438 14.7188C37.7604 14.7604 37.1667 14.8021 36.5625 14.8438V27.1875C38.25 27.1667 39.7708 27.125 41.125 27.0625C42.4792 27 43.6354 26.9167 44.5938 26.8125C45.7188 26.7292 46.7083 26.6146 47.5625 26.4688L46.8125 30.1875C45.6667 30.0417 44.5104 29.9167 43.3438 29.8125C42.3438 29.7083 41.2396 29.625 40.0312 29.5625C38.8229 29.4792 37.6667 29.4375 36.5625 29.4375V43.625C38.5 43.625 40.2812 43.5521 41.9062 43.4062C43.5312 43.2396 44.9479 43.0625 46.1562 42.875C47.5729 42.6458 48.8542 42.3854 50 42.0938L49.2812 46.1875C48.9688 46.1667 48.4583 46.1354 47.75 46.0938C47.0625 46.0729 46.3333 46.0521 45.5625 46.0312C44.8125 46.0312 44.1042 46.0208 43.4375 46C42.7708 46 42.3125 46 42.0625 46H30.2188V45.875C30.3646 45.4375 30.4896 44.875 30.5938 44.1875C30.7188 43.5 30.8125 42.6562 30.875 41.6562C30.9583 40.6354 31.0208 39.4271 31.0625 38.0312C31.1042 36.6354 31.125 35 31.125 33.125V25.25C31.125 23.375 31.1042 21.75 31.0625 20.375C31.0208 18.9792 30.9583 17.7812 30.875 16.7812C30.8125 15.7604 30.7188 14.9062 30.5938 14.2188C30.4896 13.5312 30.3646 12.9688 30.2188 12.5312V12.4062ZM77.375 35.4375C76.8125 35.4375 76.1042 35.4375 75.25 35.4375C74.4167 35.4375 73.5 35.4375 72.5 35.4375C71.5 35.4375 70.4688 35.4375 69.4062 35.4375C68.3438 35.4375 67.3333 35.4479 66.375 35.4688C65.4167 35.4688 64.5417 35.4792 63.75 35.5C62.9583 35.5 62.3438 35.5 61.9062 35.5L60.75 37.9375C60.25 38.9375 59.8229 39.8125 59.4688 40.5625C59.1146 41.2917 58.8229 41.9375 58.5938 42.5C58.3646 43.0625 58.1979 43.5521 58.0938 43.9688C57.9896 44.3646 57.9375 44.7396 57.9375 45.0938C57.9375 45.3229 57.9479 45.5 57.9688 45.625C57.9896 45.7292 58.0208 45.8125 58.0625 45.875V46H52.5625V45.875C52.7083 45.7292 52.9375 45.4167 53.25 44.9375C53.5625 44.4375 53.9167 43.8333 54.3125 43.125C54.7292 42.4167 55.1667 41.6146 55.625 40.7188C56.1042 39.8229 56.5729 38.8958 57.0312 37.9375L69.7812 11.625H72.125L84.625 37.9375C85.1042 38.9375 85.5833 39.8958 86.0625 40.8125C86.5625 41.7292 87.0208 42.5521 87.4375 43.2812C87.8542 43.9896 88.2188 44.5833 88.5312 45.0625C88.8438 45.5208 89.0521 45.7917 89.1562 45.875V46H81.1562C81.1979 45.8333 81.2188 45.6875 81.2188 45.5625C81.2188 45.4167 81.2188 45.2604 81.2188 45.0938C81.2188 44.6354 81.1146 44.0833 80.9062 43.4375C80.7188 42.7917 80.4792 42.1354 80.1875 41.4688C79.9167 40.7812 79.625 40.125 79.3125 39.5C79.0208 38.875 78.7812 38.3542 78.5938 37.9375L77.375 35.4375ZM63.125 33H65.0312C65.9062 33 66.8333 33 67.8125 33C68.8125 32.9792 69.8125 32.9688 70.8125 32.9688C71.8125 32.9688 72.7812 32.9688 73.7188 32.9688C74.6562 32.9479 75.5 32.9375 76.25 32.9375L69.7812 19.125L63.125 33ZM99.9375 33.7812C99.9375 35.5521 99.9583 37.1042 100 38.4375C100.062 39.75 100.125 40.8854 100.188 41.8438C100.271 42.8021 100.365 43.6042 100.469 44.25C100.594 44.8958 100.719 45.4375 100.844 45.875V46H93.3438V45.875C93.4688 45.4375 93.5833 44.8958 93.6875 44.25C93.8125 43.6042 93.9167 42.8021 94 41.8438C94.0833 40.8854 94.1458 39.75 94.1875 38.4375C94.2292 37.1042 94.25 35.5521 94.25 33.7812V13.4375C94.25 11.6667 94.2292 10.125 94.1875 8.8125C94.1458 7.47917 94.0833 6.33333 94 5.375C93.9167 4.39583 93.8125 3.58333 93.6875 2.9375C93.5833 2.29167 93.4688 1.75 93.3438 1.3125V1.1875C95.0729 1.1875 96.8229 1.1875 98.5938 1.1875C100.365 1.16667 102.083 1.15625 103.75 1.15625C105.417 1.13542 107 1.11458 108.5 1.09375C110 1.05208 111.354 1.02083 112.562 1C113.771 0.958333 114.792 0.916667 115.625 0.875C116.458 0.8125 117.052 0.75 117.406 0.6875L115.875 4.84375C115.188 4.65625 114.385 4.48958 113.469 4.34375C112.677 4.21875 111.708 4.10417 110.562 4C109.438 3.875 108.135 3.8125 106.656 3.8125C106.156 3.8125 105.531 3.83333 104.781 3.875C104.031 3.89583 103.292 3.92708 102.562 3.96875C101.729 4.01042 100.854 4.05208 99.9375 4.09375V19.875C102.083 19.8542 104.052 19.7917 105.844 19.6875C107.635 19.5833 109.177 19.4792 110.469 19.375C111.969 19.25 113.323 19.1042 114.531 18.9375L113.594 23.4688C112.031 23.2812 110.448 23.1042 108.844 22.9375C107.469 22.7917 105.99 22.6667 104.406 22.5625C102.823 22.4375 101.333 22.375 99.9375 22.375V33.7812ZM141.312 35.4375C140.75 35.4375 140.042 35.4375 139.188 35.4375C138.354 35.4375 137.438 35.4375 136.438 35.4375C135.438 35.4375 134.406 35.4375 133.344 35.4375C132.281 35.4375 131.271 35.4479 130.312 35.4688C129.354 35.4688 128.479 35.4792 127.688 35.5C126.896 35.5 126.281 35.5 125.844 35.5L124.688 37.9375C124.188 38.9375 123.76 39.8125 123.406 40.5625C123.052 41.2917 122.76 41.9375 122.531 42.5C122.302 43.0625 122.135 43.5521 122.031 43.9688C121.927 44.3646 121.875 44.7396 121.875 45.0938C121.875 45.3229 121.885 45.5 121.906 45.625C121.927 45.7292 121.958 45.8125 122 45.875V46H116.5V45.875C116.646 45.7292 116.875 45.4167 117.188 44.9375C117.5 44.4375 117.854 43.8333 118.25 43.125C118.667 42.4167 119.104 41.6146 119.562 40.7188C120.042 39.8229 120.51 38.8958 120.969 37.9375L133.719 11.625H136.062L148.562 37.9375C149.042 38.9375 149.521 39.8958 150 40.8125C150.5 41.7292 150.958 42.5521 151.375 43.2812C151.792 43.9896 152.156 44.5833 152.469 45.0625C152.781 45.5208 152.99 45.7917 153.094 45.875V46H145.094C145.135 45.8333 145.156 45.6875 145.156 45.5625C145.156 45.4167 145.156 45.2604 145.156 45.0938C145.156 44.6354 145.052 44.0833 144.844 43.4375C144.656 42.7917 144.417 42.1354 144.125 41.4688C143.854 40.7812 143.562 40.125 143.25 39.5C142.958 38.875 142.719 38.3542 142.531 37.9375L141.312 35.4375ZM127.062 33H128.969C129.844 33 130.771 33 131.75 33C132.75 32.9792 133.75 32.9688 134.75 32.9688C135.75 32.9688 136.719 32.9688 137.656 32.9688C138.594 32.9479 139.438 32.9375 140.188 32.9375L133.719 19.125L127.062 33ZM167.406 29.5625C166.406 29.5625 165.552 29.6042 164.844 29.6875C164.156 29.75 163.625 29.8125 163.25 29.875V33.125C163.25 34.9167 163.25 36.4167 163.25 37.625C163.271 38.8333 163.292 39.8438 163.312 40.6562C163.354 41.4688 163.385 42.125 163.406 42.625C163.427 43.1042 163.458 43.5208 163.5 43.875C164.042 44.0208 164.615 44.1146 165.219 44.1562C165.844 44.1979 166.333 44.2188 166.688 44.2188C169.562 44.2188 171.646 43.5938 172.938 42.3438C174.25 41.0729 174.906 39.1146 174.906 36.4688C174.906 35.4688 174.75 34.5417 174.438 33.6875C174.125 32.8333 173.656 32.1042 173.031 31.5C172.406 30.8958 171.625 30.4271 170.688 30.0938C169.75 29.7396 168.656 29.5625 167.406 29.5625ZM163.25 27.4375C163.667 27.5 164.042 27.5417 164.375 27.5625C164.708 27.5625 165.052 27.5625 165.406 27.5625C167.51 27.5625 169.177 26.9792 170.406 25.8125C171.656 24.6458 172.281 22.9062 172.281 20.5938C172.281 19.6562 172.156 18.7917 171.906 18C171.656 17.2083 171.292 16.5312 170.812 15.9688C170.354 15.4062 169.771 14.9688 169.062 14.6562C168.375 14.3438 167.583 14.1875 166.688 14.1875C166.083 14.1875 165.573 14.2188 165.156 14.2812C164.74 14.3229 164.385 14.3646 164.094 14.4062C163.76 14.4896 163.479 14.5625 163.25 14.625V27.4375ZM156.906 12.3438C157.302 12.3646 157.708 12.375 158.125 12.375C158.479 12.3958 158.865 12.4062 159.281 12.4062C159.698 12.4062 160.104 12.4062 160.5 12.4062C161.146 12.4062 162.042 12.3646 163.188 12.2812C164.333 12.1979 165.76 12.1562 167.469 12.1562C168.99 12.1562 170.396 12.3438 171.688 12.7188C173 13.0729 174.125 13.5938 175.062 14.2812C176.021 14.9688 176.76 15.8125 177.281 16.8125C177.823 17.8125 178.094 18.9479 178.094 20.2188C178.094 21.3021 177.938 22.2708 177.625 23.125C177.333 23.9583 176.906 24.6979 176.344 25.3438C175.781 25.9688 175.104 26.5 174.312 26.9375C173.521 27.3542 172.646 27.6875 171.688 27.9375C173.083 28.1458 174.354 28.4896 175.5 28.9688C176.646 29.4479 177.625 30.0521 178.438 30.7812C179.25 31.4896 179.875 32.3333 180.312 33.3125C180.75 34.2708 180.969 35.3438 180.969 36.5312C180.969 39.8229 179.792 42.2917 177.438 43.9375C175.083 45.5625 171.573 46.375 166.906 46.375C166.406 46.375 165.781 46.3542 165.031 46.3125C164.302 46.2708 163.531 46.2292 162.719 46.1875C161.927 46.1458 161.156 46.1042 160.406 46.0625C159.677 46.0208 159.062 46 158.562 46H156.906V45.875C157.052 45.4375 157.177 44.875 157.281 44.1875C157.406 43.5 157.5 42.6562 157.562 41.6562C157.646 40.6354 157.708 39.4271 157.75 38.0312C157.792 36.6354 157.812 35 157.812 33.125V25.25C157.812 23.375 157.792 21.7396 157.75 20.3438C157.708 18.9479 157.646 17.7396 157.562 16.7188C157.5 15.6979 157.406 14.8438 157.281 14.1562C157.177 13.4688 157.052 12.9062 156.906 12.4688V12.3438ZM193.75 43.5625C195.688 43.5625 197.469 43.4896 199.094 43.3438C200.74 43.1771 202.177 43 203.406 42.8125C204.844 42.5833 206.146 42.3229 207.312 42.0312L206.594 46.1875C206.302 46.1667 205.802 46.1354 205.094 46.0938C204.406 46.0729 203.677 46.0521 202.906 46.0312C202.135 46.0312 201.417 46.0208 200.75 46C200.083 46 199.625 46 199.375 46H187.406V45.875C187.552 45.4375 187.677 44.875 187.781 44.1875C187.906 43.5 188 42.6562 188.062 41.6562C188.146 40.6354 188.208 39.4271 188.25 38.0312C188.292 36.6354 188.312 35 188.312 33.125V25.25C188.312 23.375 188.292 21.75 188.25 20.375C188.208 18.9792 188.146 17.7812 188.062 16.7812C188 15.7604 187.906 14.9062 187.781 14.2188C187.677 13.5312 187.552 12.9688 187.406 12.5312V12.4062H194.625V12.5312C194.479 12.9688 194.354 13.5312 194.25 14.2188C194.146 14.9062 194.052 15.7604 193.969 16.7812C193.906 17.7812 193.854 18.9792 193.812 20.375C193.771 21.75 193.75 23.375 193.75 25.25V43.5625ZM212.719 12.4062C214.76 12.4062 216.854 12.4062 219 12.4062C221.146 12.3854 223.135 12.3646 224.969 12.3438C226.802 12.3021 228.375 12.2604 229.688 12.2188C231.021 12.1771 231.896 12.1146 232.312 12.0312L231.094 15.4062C230.531 15.2604 229.896 15.125 229.188 15C228.562 14.8958 227.802 14.8021 226.906 14.7188C226.031 14.6146 225.01 14.5625 223.844 14.5625C223.427 14.5625 222.948 14.5833 222.406 14.625C221.865 14.6458 221.344 14.6771 220.844 14.7188C220.26 14.7604 219.667 14.8021 219.062 14.8438V27.1875C220.75 27.1667 222.271 27.125 223.625 27.0625C224.979 27 226.135 26.9167 227.094 26.8125C228.219 26.7292 229.208 26.6146 230.062 26.4688L229.312 30.1875C228.167 30.0417 227.01 29.9167 225.844 29.8125C224.844 29.7083 223.74 29.625 222.531 29.5625C221.323 29.4792 220.167 29.4375 219.062 29.4375V43.625C221 43.625 222.781 43.5521 224.406 43.4062C226.031 43.2396 227.448 43.0625 228.656 42.875C230.073 42.6458 231.354 42.3854 232.5 42.0938L231.781 46.1875C231.469 46.1667 230.958 46.1354 230.25 46.0938C229.562 46.0729 228.833 46.0521 228.062 46.0312C227.312 46.0312 226.604 46.0208 225.938 46C225.271 46 224.812 46 224.562 46H212.719V45.875C212.865 45.4375 212.99 44.875 213.094 44.1875C213.219 43.5 213.312 42.6562 213.375 41.6562C213.458 40.6354 213.521 39.4271 213.562 38.0312C213.604 36.6354 213.625 35 213.625 33.125V25.25C213.625 23.375 213.604 21.75 213.562 20.375C213.521 18.9792 213.458 17.7812 213.375 16.7812C213.312 15.7604 213.219 14.9062 213.094 14.2188C212.99 13.5312 212.865 12.9688 212.719 12.5312V12.4062Z" fill="white"/>
</svg>
